<?xml version="1.0" encoding="utf-8"?>
<!-- Generator: Adobe Illustrator 22.1.0, SVG Export Plug-In . SVG Version: 6.00 Build 0)  -->
<svg version="1.1" id="svg2" xmlns="http://www.w3.org/2000/svg" xmlns:xlink="http://www.w3.org/1999/xlink" x="0px" y="0px"
	 viewBox="0 0 559.6 490.5" style="enable-background:new 0 0 559.6 490.5;" xml:space="preserve">
<style type="text/css">
	.st0{fill:#4D4D4D;stroke:#FFFFFF;stroke-width:0.25;stroke-linejoin:round;}
	.st1{fill:#4D4D4D;}
	.st2{font-family:'Raleway-Medium';}
	.st3{font-size:4px;}
	.st4{fill:#DD0000;}
	.st5{font-size:2.15px;}
	.st6{font-size:2px;}
	.st7{fill:#4D4D4D;stroke:#4D4D4D;stroke-width:0.25;}
	.st8{font-size:5px;}
	.st9{fill:#FFFFFF;}
	.st10{font-size:3px;}
	.st11{fill:#4D4D4D;stroke:#FFFFFF;stroke-width:0.25;}
	.st12{font-size:3.0001px;}
	.st13{font-size:2.9977px;}
	.st14{fill:#4D4D4D;stroke:#4D4D4D;stroke-width:0.25;stroke-linejoin:round;}
	.st15{font-size:6px;}
	.st16{font-size:3.985px;}
	.st17{font-size:3.0127px;}
	.st18{font-size:3.0037px;}
	.st19{fill:#868686;stroke:#FFFFFF;stroke-width:0.25;}
</style>
<g id="Madagascar_1_">
	<path id="Madagascar" class="st0" d="M489.9,345.3c-3.5,3.4-5.9,7.3-6.7,10.8c-5.7,5.5-12.5,8.6-19.9,10.3c0,0-3.7,3.2-3.7,5.2
		s0.7,4.7-0.3,5.8s-3.2,3.3-2.3,3.9c3.2,8.7-0.8,16.9-6.2,23.6c-0.9,2.2-1.7,4.2-2.4,6.5c2.7,5.3-0.5,16.1,7.9,19.4
		c5,3.5,9.8-2.8,14.6-4.1c1.9-2.5,2.9-5.9,3.8-8.1c1.1-3.2,3.5-6.6,4.7-10c0.5-1.4,2.1-3.1,2.6-4.5c1.8-4.8,2.7-9.5,4.7-14.4
		c1.4-3.7,2.1-7.4,3.7-11c0.5-1.1,1.8-2.2,2.3-3.2c-1.1-4.2,4.6-7.8,2.6-12.4c1.4-2.3,3.7,3.3,5-1.4c-3.5-7.3,0-13.4-4.3-20.7
		c-0.9-2.2-3.8-2.3-3.8-2.3C490.1,340.1,491.3,343.2,489.9,345.3L489.9,345.3z"/>
	<text transform="matrix(1.16 0 0 1 492.5801 383.2998)" class="st1 st2 st3">MA</text>
	<text transform="matrix(1.16 0 0 1 499.7725 383.2998)" class="st1 st2 st3">DA</text>
	<text transform="matrix(1.16 0 0 1 506.0015 383.2998)" class="st1 st2 st3">G</text>
	<text transform="matrix(1.16 0 0 1 509.3193 383.2998)" class="st1 st2 st3">A</text>
	<text transform="matrix(1.16 0 0 1 512.4165 383.2998)" class="st1 st2 st3">S</text>
	<text transform="matrix(1.16 0 0 1 515.2354 383.2998)" class="st1 st2 st3">C</text>
	<text transform="matrix(1.16 0 0 1 518.3555 383.2998)" class="st1 st2 st3">AR</text>
	<path id="Air_Madagascar" class="st4" d="M466.8,378.7c0.7,0,1.3-0.6,1.3-1.3s-0.6-1.3-1.3-1.3s-1.3,0.6-1.3,1.3
		S466.1,378.7,466.8,378.7z"/>
</g>
<path id="Réunion" class="st0" d="M531.1,402.9c0,2.6-2.5,0.4-3.8,0.5c-1.3-1-3.3-3.3-0.6-4.3C528.5,398.6,530.3,401.3,531.1,402.9
	z"/>
<text transform="matrix(1.16 0 0 1 522.7104 407.7998)" class="st1 st2 st5">RÉUNION</text>
<path id="Mauritius" class="st0" d="M542.8,397.1c-1,1-2.7,1-3.7,0c-0.2-0.2-0.3-0.4-0.4-0.6c1.2-0.7,1.2-1.8,2.4-2.4
	C542.5,393.5,544,396.2,542.8,397.1L542.8,397.1z"/>
<text transform="matrix(1.24 0 0 1 546.1299 396.7803)" class="st1 st2 st6">M</text>
<text transform="matrix(1.24 0 0 1 548.2998 396.7803)" class="st1 st2 st6">A</text>
<text transform="matrix(1.24 0 0 1 549.8994 396.7803)" class="st1 st2 st6">URITIUS</text>
<g id="Comoros_1_">
	<path id="Comoros" class="st0" d="M455.1,338.1c-0.9,0.9-2.2-0.2-2.4-1c0.9-1.4-0.3-2.7,1.4-3.3
		C455.9,334.6,455.4,336.3,455.1,338.1z"/>
	<text transform="matrix(1.24 0 0 1 448.5098 332.4102)" class="st1 st2 st6">C</text>
	<text transform="matrix(1.24 0 0 1 450.1836 332.4102)" class="st1 st2 st6">OMOROS</text>
	<path id="AB_Aviation" class="st4" d="M454.2,336.8c0.4,0,0.6-0.3,0.6-0.7c0-0.4-0.3-0.6-0.6-0.6
		C453.4,335.6,453.4,336.8,454.2,336.8z"/>
</g>
<path id="Mayotte" class="st0" d="M462.6,341.2c-0.3,0.8-1.3,0.5-1.6,0.1c0.1-1-0.9-1.4-0.2-2.3C462.2,339,462.4,340.1,462.6,341.2
	L462.6,341.2z"/>
<text transform="matrix(1.24 0 0 1 464.6396 341.2598)" class="st1 st2 st6">M</text>
<text transform="matrix(1.24 0 0 1 466.8096 341.2598)" class="st1 st2 st6">A</text>
<text transform="matrix(1.24 0 0 1 468.2979 341.2598)" class="st1 st2 st6">Y</text>
<text transform="matrix(1.24 0 0 1 469.7979 341.2598)" class="st1 st2 st6">O</text>
<text transform="matrix(1.24 0 0 1 471.6084 341.2598)" class="st1 st2 st6">TTE</text>
<path id="Seychelles" class="st7" d="M482.2,321.9C487,321.5,480.9,325,482.2,321.9 M536.4,285.3L536.4,285.3l0.1-0.2l0.1,0.1
	L536.4,285.3L536.4,285.3z M538.3,283.3L538.3,283.3l0.5,0.5L538.3,283.3z M540.9,303.9L540.9,303.9l0.2-0.3L540.9,303.9z
	 M541.1,327.7L541.1,327.7l0.1-0.3L541.1,327.7z"/>
<text transform="matrix(1.24 0 0 1 495.6597 309.4902)" class="st1 st2 st8">SE</text>
<text transform="matrix(1.24 0 0 1 503.1865 309.4902)" class="st1 st2 st8">Y</text>
<text transform="matrix(1.24 0 0 1 506.9683 309.4902)" class="st1 st2 st8">CHELLES</text>
<g id="Botswana_1_">
	<path id="Botswana" class="st0" d="M357.4,406.4c-1.5-1.9-4.1-2.8-6.7-3.4c-2.5-4.1-5.3-11.5-10.8-12.3c-3.4-4-4.9-9.4-7.7-12.3
		c-3.5-0.5-7.1,0.3-10.1,2.3c-1.7,0.4-3.4,0.8-5,1.4c-0.3,0.1-0.6,0.1-0.9,0.1c-1.2-0.1-3.1-1.4-4.2-1.4c-3.1,0.3-6,1.4-8.6,3
		l0.3,21.3h-5.9l0.1,20.8l0.5,1.9l4.5,6.3c0.5,1.6-4.5,3.7-0.7,5c4.8-0.8,11.3-3.3,13.1-8.6c4.1-4.6,7,0.6,11.1,1.4
		c7.4,2.3,6.5-7.6,12.7-8.8c0.3-0.8,0.7-1.6,1.2-2.3l0,0c0.1-0.1,0.1-0.1,0.1-0.2l0.1-0.1l0,0c0-0.1,0-0.1,0.1-0.1l0,0
		c0-0.1,0-0.1,0.1-0.1v-0.1l0,0v0.1L357.4,406.4z M340.7,420.1L340.7,420.1c0.1-0.1,0.1-0.1,0.1-0.2l0.1-0.1l0,0
		c0-0.1,0-0.1,0.1-0.1l0,0c0-0.1,0.1-0.1,0.1-0.2l0,0l0.2-0.2c0-0.1,0-0.1,0.1-0.1l0,0v-0.1c0.1-0.1,0.2-0.2,0.3-0.4l0,0l0.5-0.5
		l0,0c0.1,0,0.1,0,0.1-0.1l0,0l0.1-0.1l0,0l1.4-1.4l0,0c3.2-2.8,7.3-5,10.4-7l3.3-3.3L340.7,420.1z"/>
	<text transform="matrix(1.24 0 0 1 311.8799 408.79)" class="st9 st2 st10">B</text>
	<text transform="matrix(1.24 0 0 1 314.3721 408.79)" class="st9 st2 st10">O</text>
	<text transform="matrix(1.24 0 0 1 317.0752 408.79)" class="st9 st2 st10">T</text>
	<text transform="matrix(1.24 0 0 1 319.3569 408.79)" class="st9 st2 st10">S</text>
	<text transform="matrix(1.24 0 0 1 321.564 408.79)" class="st9 st2 st10">W</text>
	<text transform="matrix(1.24 0 0 1 325.2471 408.79)" class="st9 st2 st10">AN</text>
	<text transform="matrix(1.24 0 0 1 330.6284 408.79)" class="st9 st2 st10">A</text>
	<path id="Air_Botswana" class="st4" d="M323.7,404.7c0.7,0,1.3-0.6,1.3-1.3s-0.6-1.3-1.3-1.3s-1.3,0.6-1.3,1.3
		S323,404.7,323.7,404.7z"/>
</g>
<g id="Namibia_1_">
	<path id="Namibia" class="st11" d="M332.3,378.3c-3.5-0.5-7.1,0.3-10.1,2.3c-1.7,0.4-3.4,0.8-5,1.4c-0.3,0.1-0.6,0.1-0.9,0.1
		c-1.2-0.1-3.1-1.4-4.2-1.4c-3.1,0.3-6,1.4-8.6,3l0.3,21.3h-5.9l0.3,43.5l-8.6,4.3c-2.8-1.2-8.9,0-9.4-5.5l-1.1-1l-3.7,3.7l-0.1,0.1
		c-1.5-2.1-3.3-3.9-5.5-5.3c-3.7-11.5-9-23.4-8.4-36.1c-4.8-11.8-16.9-22-18.7-34.2l7.8-2.3c8,4.2,25.7,1.6,34.2,2.3
		c5.3,5.7,14.1,2.3,20.5,4.7c3.2,0.5,5.9-0.8,8.4-1.3c0,0,4.2-0.7,5-1.6c0.2-0.3,0.5-0.5,0.5-0.9h0.1
		C323,376.5,330.2,373.9,332.3,378.3L332.3,378.3z"/>
	<text transform="matrix(1.24 0 0 1 267.9097 403.02)" class="st9 st2 st3">NAMIBI</text>
	<text transform="matrix(1.24 0 0 1 285.3315 403.02)" class="st9 st2 st3">A</text>
	<path id="Air_Namibia" class="st4" d="M280.7,409.7c0.7,0,1.3-0.6,1.3-1.3s-0.6-1.3-1.3-1.3s-1.3,0.6-1.3,1.3
		S280,409.7,280.7,409.7z"/>
</g>
<g id="Mozambique_1_">
	<path id="Mozambique" class="st11" d="M397.8,334.2c0,0.1,0,0.2,0.1,0.2c0.2,0.4,0.4,0.8,0.7,1.2c-0.2,0.5-0.4,2.8-0.5,3.3
		c-1.1,4.2-1.6,7,0.1,10.7c3.4,4.6,6.4,9.7,4.3,15.4c-4.1,0.5-2.3,6.2-6,4.6c-8.5-5.1,3-10.2-3.8-14.7c-2.3,2.7-5.6-1.5-7.9-2.8
		l-7,2.6l-5,2.8l-6.4,1.4v4.4c4.9,5,16.4,3.1,17.4,12.2l-1.6,14.1c0.5,6.6-4,11.8-7.5,17.1c-6.2,0.2-3.7,5.9-3.7,8.4
		c3.4,5.6,3.3,9.7,2.8,16.3l-1.2,0.5l2.1,6.9l4.7,1.1l0.1,0.1c0.8-2.5,0.9-5.2,0.2-7.7c-1.4-1.6,1.2-3.3,1.2-3.3
		c6.6-3.4,18-4.7,16.5-13.9c4.1-5.7-2-10.7-1.4-16.7c-1.9-1-2.6-3.3-1.6-5.2c0.1-0.1,0.1-0.3,0.2-0.4c10.7-7.5,17.7-19.8,30.5-20.7
		c5.8-5.2,11.9-10.8,11-16.7c0.4-2.8-1.8-5.5-1.4-7.4c0.5-6.3,0.6-12.7,0.2-19c-0.2-0.4-0.4-0.8-0.5-1.2l-0.5,0.6
		c-9.1,6-13.8,3.8-23,8.4c-3.4-2.5-7.2-1.4-10.3-1.7c-1-0.2-2-0.6-2.8-1.3L397.8,334.2L397.8,334.2z"/>
	<text transform="matrix(0.94 -0.81 0.65 0.76 395.6 381.2997)" class="st9 st2 st12">M</text>
	<text transform="matrix(0.94 -0.81 0.65 0.76 398.0634 379.1782)" class="st9 st2 st12">O</text>
	<text transform="matrix(0.94 -0.81 0.65 0.76 400.1311 377.3965)" class="st9 st2 st12">ZAMBIQUE</text>
	<path id="LAM_Mozambique_Airlines" class="st4" d="M417.7,363.5c0.7,0,1.3-0.6,1.3-1.3s-0.6-1.3-1.3-1.3s-1.3,0.6-1.3,1.3
		S417,363.5,417.7,363.5z"/>
</g>
<g id="South_Africa_1_">
	<path id="South_Africa" class="st11" d="M383,428L383,428c-0.3,0.2-0.6,0.3-0.9,0.4C382.4,428.3,382.7,428.1,383,428z M372.4,417.6
		c-0.1-0.1-0.1-0.2-0.1-0.3h-0.1v-0.2h-0.1v-0.2c-0.1,0-0.1,0-0.1-0.1l0,0v-0.1c-0.1,0-0.1,0-0.1-0.1l0,0c-0.3-0.5-0.6-1.1-0.9-1.6
		c0-1.5-1-4.2-0.3-6.1l0,0c-3.7-1-9.1-1.1-13.4-2.6l-3.3,3.3c-3.1,2.1-7.1,4.2-10.4,7l0,0c-0.5,0.4-1,0.9-1.4,1.4l0,0l-0.1,0.1
		c0,0.1,0,0.1-0.1,0.1l0,0l0,0l-0.5,0.5l0,0c-0.1,0.2-0.2,0.3-0.3,0.4v0.1c-0.1,0-0.1,0-0.1,0.1l0,0l-0.2,0.2l0,0
		c0,0.1-0.1,0.1-0.1,0.2c-0.1,0-0.1,0-0.1,0.1l0,0l0,0l-0.1,0.1c0,0.1,0,0.1-0.1,0.1l0,0l0,0v0.1c-0.1,0.1-0.1,0.1-0.1,0.2
		s-0.1,0-0.1,0.1c-0.1,0-0.1,0-0.1,0.1l0,0l0,0l-0.1,0.1c0,0.1,0,0.1-0.1,0.2l0,0c-0.5,0.7-0.9,1.5-1.2,2.3
		c-6.2,1.3-5.3,11.2-12.7,8.8c-4.1-0.8-7-6-11.1-1.4c-1.8,5.3-8.3,7.8-13.1,8.6c-3.8-1.3,1.3-3.3,0.7-5l-4.5-6.3l-0.5-1.9l0.2,22.7
		l-8.6,4.3c-2.8-1.2-8.9,0-9.4-5.5l-1.1-1l-3.7,3.7l-0.1,0.1c5,6.8,7,15.8,12,22.9c0.8,2.5-2.8,4.1-1.7,6c4.9,3.3,6.6,13.1,14.1,11
		c5.4-0.2,9.5-3.8,14.6-4.8c5.8-0.1,16.5-0.4,22.4-2.9c15.2-2.3,25.6-19,35.8-30.5c2.1-4.4,5.5-7.8,7-12l-0.1-0.1l-4.7-1.1
		c-0.6,2.5-3.6,4.9-5.9,2.7c-2.8-3.2-3.8-6.1,0-9.1l3.9-0.5l1.2-0.5C374.3,425.9,374.5,422.1,372.4,417.6L372.4,417.6z M340.7,420.1
		c-0.1,0.1-0.1,0.1-0.1,0.2 M372.4,417.6c-0.1-0.1-0.1-0.2-0.1-0.3 M381.8,428.5c0.1,0,0.1-0.1,0.2-0.1
		C381.9,428.4,381.9,428.5,381.8,428.5L381.8,428.5z M356.4,455.3c-1.1,5.4-7.2,4.9-10.4,8.4c-2.8-2.7-4.6-7.7-0.5-10.7l4.3-2.4
		C352.5,450.5,355.1,452.7,356.4,455.3z"/>
	<text transform="matrix(1 0 0 1 297.72 464.81)" class="st9 st2 st8">SOUTH</text>
	<text transform="matrix(1 0 0 1 315.05 464.81)" class="st9 st2 st8"> </text>
	<text transform="matrix(1 0 0 1 316.16 464.81)" class="st9 st2 st8">AFRI</text>
	<text transform="matrix(1 0 0 1 327.05 464.81)" class="st9 st2 st8">C</text>
	<text transform="matrix(1 0 0 1 330.41 464.81)" class="st9 st2 st8">A</text>
	<path id="South_African_Express" class="st4" d="M318.7,478.8c0.7,0,1.3-0.6,1.3-1.3s-0.6-1.3-1.3-1.3s-1.3,0.6-1.3,1.3
		S318,478.8,318.7,478.8z"/>
	<path id="South_African_Airways" class="st4" d="M346.4,439.7c0.7,0,1.3-0.6,1.3-1.3s-0.6-1.3-1.3-1.3s-1.3,0.6-1.3,1.3
		S345.7,439.7,346.4,439.7z"/>
</g>
<path id="Swaziland" class="st0" d="M372.7,431.9l-3.9,0.5c-3.8,3-2.8,5.9,0,9.1c2.3,2.2,5.3-0.2,5.9-2.7L372.7,431.9z"/>
<text transform="matrix(1.24 0 0 1 353.5898 430.8599)" class="st9 st2 st6">S</text>
<text transform="matrix(1.24 0 0 1 355.0654 430.8599)" class="st9 st2 st6">W</text>
<text transform="matrix(1.24 0 0 1 357.5205 430.8599)" class="st9 st2 st6">AZILAND</text>
<path id="Lesotho" class="st11" d="M356.4,455.3c-1.1,5.4-7.2,4.9-10.4,8.4c-2.8-2.7-4.6-7.7-0.5-10.7l4.3-2.4
	C352.5,450.5,355.1,452.7,356.4,455.3z"/>
<text transform="matrix(1.24 0 0 1 339.5796 448.3799)" class="st9 st2 st6">LES</text>
<text transform="matrix(1.24 0 0 1 344.0435 448.3799)" class="st9 st2 st6">O</text>
<text transform="matrix(1.24 0 0 1 345.8418 448.3799)" class="st9 st2 st6">THO</text>
<g id="Zimbabwe_1_">
	<path id="Zimbabwe" class="st0" d="M366.5,363.3c-2.8-0.1-5.5,0.3-8.1,1.3c-1.3,4.6-5,4.8-8.4,6.4l-6,7.4h-11.7
		c2.8,3,4.2,8.4,7.7,12.3c5.5,0.8,8.3,8.2,10.8,12.3c2.5,0.6,5.1,1.5,6.7,3.4c4.3,1.5,9.7,1.6,13.4,2.6l0,0c0.5-1.3,1.5-2.2,4-2.3
		c3.5-5.3,8-10.5,7.5-17.1l1.6-14.1C382.9,366.3,371.3,368.3,366.5,363.3L366.5,363.3z"/>
	<text transform="matrix(1.24 0 0 1 351.6396 386.1099)" class="st9 st2 st10">ZIM</text>
	<text transform="matrix(1.24 0 0 1 358.1992 386.1099)" class="st9 st2 st10">B</text>
	<text transform="matrix(1.24 0 0 1 360.6421 386.1099)" class="st9 st2 st10">A</text>
	<text transform="matrix(1.24 0 0 1 363.1592 386.1099)" class="st9 st2 st10">B</text>
	<text transform="matrix(1.24 0 0 1 365.5771 386.1099)" class="st9 st2 st10">WE</text>
	<path id="Air_Zimbabwe" class="st4" d="M363.4,390.7c0.7,0,1.3-0.6,1.3-1.3s-0.6-1.3-1.3-1.3s-1.3,0.6-1.3,1.3
		S362.7,390.7,363.4,390.7z"/>
</g>
<path id="Zambia" class="st11" d="M388.2,337.5c-0.2,3-2.8,5.4-3.9,8.5l0,0v0.2l0,0v0.1c-0.2,0.5-0.3,0.9-0.4,1.4v0.6l0,0v0.9
	c0,0.2,0,0.3,0.1,0.5v0.4c0,0.1,0.1,0.1,0.1,0.2v0.3c0.1,0.1,0.1,0.1,0.1,0.2l0,0v0.2l0,0c0.1,0.1,0.1,0.1,0.1,0.2v0.1l0.1,0.1l0,0
	v0.3c0.1,0,0.1,0,0.1,0.1c0,0.1,0,0.1,0.1,0.2v0.1c0,0.1,0.1,0.2,0.1,0.3l0,0c0.1,0.1,0.1,0.2,0.2,0.3l-2.5,0.9l0,0l-4.5,1.7l-5,2.8
	l-6.4,1.4v4.4c-2.8-0.1-5.5,0.3-8.1,1.3c-1.3,4.6-5,4.8-8.4,6.4l-6,7.4h-11.7c-2.1-4.4-9.3-1.8-13.1-2.8h-0.1
	c0.3-0.5,0.2-1.2-0.9-1.9l-7.4-7.4l0.5-20.8c3.6-1.4,9.2-1.3,11.7-1.3l1.4-2.4l-0.6-3.5l-0.8-2.4l1.4-2.8l0.4-0.6
	c1.1,0.5,2.2,0.8,3.4,0.8c1.1-0.1,2.4,0.2,4.1,0c2,4.1,6.8,5.1,10.8,5l2.6-1.4c4.8,3.9,10.2,6.4,13.7,11c3.9,1.7,4.4-3.7,4.1-5.7
	c-0.7-4.2-2.8,0.7-5-1.7c-7.1-3.9,0.1-16.4-2.7-21.7c1.8-7.7,9.5-5.1,13.9-6.1c0.7,1.6,2.4,3.1,3.2,1.6v-0.1
	c3.1,1.9,6.2,3.8,9.5,5.5l0,0c2,1.1,4.1,2.2,6.1,3.2l-0.1,2.9l1.8,2.5C385.4,331.2,389.4,334.2,388.2,337.5z M384.9,352.1
	c0.1,0.1,0.2,0.1,0.2,0.2C385,352.2,384.9,352.2,384.9,352.1L384.9,352.1z M385,352.3c0.1,0,0.1,0,0.2,0.1 M385.8,352.6
	c0.1,0.1,0.1,0.2,0.2,0.2C385.8,352.8,385.8,352.7,385.8,352.6L385.8,352.6z"/>
<text transform="matrix(1.24 0 0 1 331.2998 355.6802)" class="st9 st2 st3">ZAMBI</text>
<text transform="matrix(1.24 0 0 1 346.7373 355.6802)" class="st9 st2 st3">A</text>
<path id="Malawi" class="st11" d="M392.5,322.5c-0.5,0.9-0.3,2.1,0.5,2.8c0,0,1.6,5.1,1.5,6.6v0.4c-0.5,1.3-1.2,1.3-1.6,2.9
	c-0.2,0.9-0.3,3.3-0.6,4.2c0.2,0.6,0.4,1.2,0.5,1.8c1.2,3.3,2.9,7.1,2.4,10.9c1.4-0.3,3.2,1.3,3.7-1h0.4c3,4.2,5.1,8.8,3.2,14
	c-4.1,0.5-2.3,6.2-6,4.6c-8.5-5.1,3-10.2-3.8-14.7c-2.3,2.7-5.6-1.5-7.9-2.8c-3.2-6.8,3.1-9.9,3.3-14.6c1.3-3.3-2.8-6.3,2-9.4
	l-1.8-2.5l0.1-2.9c0.5,0.3,2.4,0.1,3.9-0.3H392.5z"/>
<text transform="matrix(1.17 0 0 1 378.8696 349.0898)" class="st9 st2 st10">MAL</text>
<text transform="matrix(1.17 0 0 1 386.3579 349.0898)" class="st9 st2 st10">A</text>
<text transform="matrix(1.17 0 0 1 388.5342 349.0898)" class="st9 st2 st10">WI</text>
<g id="Tanzania_1_">
	<path id="Tanzania" class="st0" d="M430.8,299.2c-2.3-0.8-2.3-3.1-0.7-4.5C431.2,296.2,432.1,297.9,430.8,299.2z M362.6,285.9
		l1.4-0.2c2.8-3,9.4-7.9,4.3-12.2c7-2.3-3.8-8.6,2.7-11l7.3-0.3c0.1,2.3,0.5,4.6-0.8,7c-0.2,3.6,1.6,4.1,3.7,3.7h0.1
		c0.9-0.2,1.9-0.4,2.8-0.7l0,0c0.2,0,0.3-0.1,0.4-0.1l0,0c0.2-0.1,0.5-0.2,0.7-0.2l0,0v-0.1h0.3c0.1,0,0.1,0,0.2-0.1h0.4v-0.1h0.6
		c1.7,1.4,4.1,1.1,4.4-1c-0.1-0.1-0.3-0.1-0.4-0.1l0,0c-0.1-0.1-0.2-0.1-0.3-0.1v-0.1h-0.2c0-0.1,0-0.1-0.1-0.1l0,0
		c-0.1,0-0.1,0-0.2-0.1l0,0c-0.1,0-0.1,0-0.2-0.1h-0.1c-0.1-0.1-0.2-0.2-0.3-0.2l0,0c-0.1-0.1-0.2-0.2-0.3-0.2v-0.1
		c-0.1,0-0.2-0.1-0.2-0.2h-0.1c0-0.1-0.1-0.1-0.1-0.2l0,0c0-0.1,0-0.1-0.1-0.2l0,0v-0.4l0,0v-0.1h0.1c0-0.2,0.1-0.3,0.2-0.4l0,0
		c0-0.1,0.1-0.1,0.1-0.2l0,0l0.1-0.1l0,0l0.1-0.1l0,0l0.1-0.1l0,0c0.1,0,0.1,0,0.1-0.1l0,0h0.1v-0.1c0.1-0.1,0.2-0.1,0.3-0.2V267
		h0.1l0.1-0.1c0.1,0,0.1,0,0.1-0.1l0,0h0.1c0-0.1,0-0.1,0.1-0.1l0,0l0.1-0.1h0.1c1.5-1.2,3.6-2.5,3.8-4.2l23.8,13
		c-0.4,1.4,0,3,1,4.1l9.8,7.6l0,0c-0.1,0.2-0.3,0.4-0.4,0.6l0,0c-0.1,0.2-0.2,0.3-0.3,0.5l-0.1,0.1l0,0c0,0.1,0,0.1-0.1,0.2v0.1
		h-0.1c0,0.1-0.1,0.3-0.1,0.4l0,0l-0.1,0.1v0.1l0,0l-0.1,0.1v0.1c0,0.1,0,0.1-0.1,0.1l0,0l0,0v0.1l0,0c0,0.1,0,0.1-0.1,0.1
		c0,0.2-0.1,0.3-0.2,0.5l0,0v0.1c0,0.1,0,0.1-0.1,0.1c0,0.2-0.1,0.3-0.1,0.4v0.1l0,0l-0.1,0.1l0,0v0.2h-0.1v0.2l0,0
		c0,0.1,0,0.1-0.1,0.1l0,0v0.2c0,0.1,0,0.1-0.1,0.2v0.1c-0.1,0.2-0.1,0.3-0.1,0.5l0,0c-0.9,3-0.3,6.2,1.5,8.7
		c0.4,1.1,0.5,2.3,0.5,3.5c-0.3,2.5,0.8,5,0.1,7.7c2.1,4.4-0.4,9.7,4.3,13.3c0.5,0.6,1,1.2,1.4,1.9l0,0l-0.5,0.6
		c-9.1,6-13.8,3.8-23,8.4c-1.2-0.9-2.6-1.4-4-1.5l0,0c-2.2-0.4-4.4,0-6.3-0.2c-1-0.2-2-0.6-2.8-1.3v0.5c-0.4-0.8-0.7-2.5-1.3-3.3
		l0,0c0-0.1-0.1-0.2-0.2-0.3c-0.1-0.1-0.2-0.3-0.3-0.4V330l0,0c-1-1.5-1.3-5-1.3-5c0.4-0.7,0.4-1.6,0.2-2.4l-0.1-0.1l0,0
		c-0.3-0.5-0.9-0.8-2.1-0.8c-0.2,0.2-0.4,0.4-0.5,0.6h-0.3c-0.1,0-0.1,0-0.1,0.1l0,0h-0.2c-1.4,0.4-3.1,0.5-3.4,0.2
		c-5.6-2.7-10.9-5.7-15.8-8.6c-1.1-1.6-1.9-3.3-2.4-5.2l3.9-0.2l-4.8-3.7c-0.7-3.1-1.7-6-4.5-8.3c0.7-3.3-0.6-6.6-2.3-10
		c-0.2-0.4-0.4-0.5-0.5-0.8L362.6,285.9L362.6,285.9z M389.7,267.5L389.7,267.5 M389.9,267.4L389.9,267.4 M390.1,267.3L390.1,267.3
		 M392.3,322.5L392.3,322.5 M393,325.3c-0.2-0.3-0.5-0.5-0.5-0.7C392.6,324.8,392.8,325,393,325.3z"/>
	<text transform="matrix(1.24 0 0 1 384.0596 298.3301)" class="st9 st2 st3">T</text>
	<text transform="matrix(1.24 0 0 1 386.7754 298.3301)" class="st9 st2 st3">ANZANI</text>
	<text transform="matrix(1.24 0 0 1 405.5488 298.3301)" class="st9 st2 st3">A</text>
	<path id="Precision_Air" class="st4" d="M421,303.4c0.7,0,1.3-0.6,1.3-1.3s-0.6-1.3-1.3-1.3s-1.3,0.6-1.3,1.3
		S420.3,303.4,421,303.4z"/>
	<path id="Air_Tanzania" class="st4" d="M396.4,277.8c0.7,0,1.3-0.6,1.3-1.3s-0.6-1.3-1.3-1.3s-1.3,0.6-1.3,1.3
		S395.7,277.8,396.4,277.8z"/>
</g>
<path id="Burundi" class="st0" d="M362,284.9c-0.5-3.1-2.3-6.3-2.3-9.9c1.8-0.5,2.7,2.3,4.1,1.7c0.5-0.2,0.7-2,1.4-2.8l3.1-0.4
	c5,4.2-1.5,9.2-4.3,12.2l-1.4,0.2L362,286L362,284.9L362,284.9z"/>
<text transform="matrix(1.24 0 0 1 362.0898 281.5898)" class="st9 st2 st6">BURUNDI</text>
<g id="Rwanda_1_">
	<path id="Rwanda" class="st0" d="M363.4,265.1l5-0.5h0.5c-0.4,3,4.9,7.1-0.5,8.9l-3.1,0.4c-0.7,0.8-1,2.6-1.4,2.8
		c-1.4,0.5-2.3-2.2-4.1-1.7C359.2,272,359.7,268.4,363.4,265.1z"/>
	<text transform="matrix(1.24 0 0 1 363.3696 271.6201)" class="st9 st2 st6">R</text>
	<text transform="matrix(1.24 0 0 1 364.9443 271.6201)" class="st9 st2 st6">W</text>
	<text transform="matrix(1.24 0 0 1 367.3994 271.6201)" class="st9 st2 st6">AN</text>
	<text transform="matrix(1.24 0 0 1 370.9956 271.6201)" class="st9 st2 st6">D</text>
	<text transform="matrix(1.24 0 0 1 372.707 271.6201)" class="st9 st2 st6">A</text>
	<path id="Rwanda_Air" class="st4" d="M365.6,268.5c0.4,0,0.6-0.3,0.6-0.7c0-0.4-0.3-0.6-0.6-0.6c-0.4,0-0.7,0.3-0.7,0.6
		S365.3,268.5,365.6,268.5C365.6,268.5,365.6,268.5,365.6,268.5z"/>
</g>
<path id="Republic_of_Congo" class="st0" d="M286.9,232.1c1.1,3.1,0.1,2.9-1.2,5.3c-0.7,1.8-1.2,3.6-1.6,5.5l-0.6,3.3l-2.6,8.1
	l-0.2,6.5c-8.2,5.5-10,14.1-12.2,22.1c-4.7,0.9-6.8,12.7-11.7,4c-1.4,3.1-4.4,2.6-6.9,2.3l-0.5-0.3c0.7-1.4-1.5-2.3-2.3-3.1
	l-5.4,4.1l-0.3,0.1c-1.2-2.7-2.7-5.3-4.4-7.7h0.3c8.4-0.3-1.2-7.1,3.1-10.1c5,2.5,5.9-7.1,9.4,0c3.3-0.5,5.2,1.7,7.7-1
	c0.3-3.6,4.5-10-0.9-12.8c-3.7-3-0.4-6,2.1-8.6c-1.4-3.8-4-3-6.8-2c-3.3-1.8-1.4-3.4-1.6-5.7c6.8-2,13.8,2.5,20.1,1l0.5-3.4
	c2.8-1.1,1.8-4.7,3.3-6.7C278.3,230.8,282.9,232.6,286.9,232.1z"/>
<text transform="matrix(0.4904 -1.1409 0.9207 0.3903 261.041 282.3496)" class="st9 st2 st13">REPUBLIC O</text>
<text transform="matrix(0.4904 -1.1409 0.9207 0.3903 269.6206 262.3888)" class="st9 st2 st13">F</text>
<text transform="matrix(0.4904 -1.1409 0.9207 0.3903 270.4436 260.4742)" class="st9 st2 st13"> </text>
<text transform="matrix(0.4904 -1.1409 0.9207 0.3903 270.8161 259.6075)" class="st9 st2 st13">C</text>
<text transform="matrix(0.4904 -1.1409 0.9207 0.3903 271.8056 257.3053)" class="st9 st2 st13">ONGO</text>
<path id="Central_African_Republic" class="st0" d="M265.7,205.4l0.2-0.4C265.8,205.1,265.8,205.3,265.7,205.4l-2.4,4.1l-2.1,1.6
	l-0.5,2l-1.7,2.7c0.1,1.3,0.3,2.6,0.5,4.1c0.2,1.2,0.5,2.3,0.8,3.5s0.2,3.6,0.7,5c0.7,1.7,2.6,1.3,3.7,2.9c0.7,1,1.5,2,2.4,2.9
	c0.8,0.9,1.4,3.1,2.3,3.9l1.3,1.9c2.8-1.1,1.8-4.7,3.3-6.7c4.2-2.3,8.8-0.5,12.9-1c1.8-2.8,0.6-8.9,6.7-9.3c4.6-1.7,6.3,3.9,10,4.3
	c4.5,1.3,11.2,2.1,14.7-2.2c5.6,0.7,9.7-3.3,13.8-1.9c2.5-7.8,9.5,1.9,13-1.7c1.2,0.5,3.1,0.7,3.1,0l-18.1-20.8
	c-4.1-1.1-7.7-4.6-8.6-7.7c1.8-2.9-2.8-7.5-4.3-11c-7.7-4.5-8.4,8.5-15.5,9.6c-3.9,5-11.3,0.8-13.3,8.1
	C280.6,203.4,272.4,204.7,265.7,205.4L265.7,205.4z"/>
<text transform="matrix(1.24 0 0 1 271.3896 212.6001)" class="st9 st2 st10">CENTRA</text>
<text transform="matrix(1.24 0 0 1 286.2822 212.6001)" class="st9 st2 st10">L </text>
<text transform="matrix(1.24 0 0 1 289.1714 212.6001)" class="st9 st2 st10">AFRI</text>
<text transform="matrix(1.24 0 0 1 297.2686 212.6001)" class="st9 st2 st10">C</text>
<text transform="matrix(1.24 0 0 1 299.7734 212.6001)" class="st9 st2 st10">AN REPUBLIC</text>
<g id="Democratic_Republic_of_Congo_1_">
	<path id="Democratic_Republic_of_Congo" class="st0" d="M369.5,312.6c-4.4,1-12.1-1.5-13.9,6.1c2.8,5.3-4.4,17.8,2.7,21.7
		c2.3,2.4,4.3-2.5,5,1.7c0.4,2-0.2,7.4-4.1,5.7c-3.5-4.6-8.9-7.1-13.7-11l-2.6,1.4c-4,0.1-8.8-1-10.8-5c-1.7,0.2-3.1-0.1-4.1,0
		c-1.3,0-2.5-0.3-3.7-0.9l-1.4-1.5l-10.1,1c0.5-3.9-1.1-7.7-3.3-11.4l-0.7-14.3c-4.3-1.8-6.1,1.3-9.7-2l-4.6,1
		c-0.7,11.4-9.5,3.2-14.4,5.8l-1.2-2.4l-2.3-2.3l-0.8-3.7l-2.3-2.5l-2.2-2.8l-24.1-0.7l-2,1l-0.7,0.6c-0.4-1-0.8-2-1.2-3.1l1.9-0.6
		c-0.8-9.9,8.4-1,11.4-7.4c4.9,8.7,7-3.1,11.7-4c0.3-0.9,0.5-1.8,0.8-2.7l0,0V280c0.1-0.1,0.1-0.1,0.1-0.2c0-0.2,0.1-0.3,0.1-0.5
		c0.1,0,0.1,0,0.1-0.1l0,0V279c0.1-0.1,0.1-0.2,0.1-0.3c0-0.1,0-0.1,0.1-0.1v-0.1l0,0v-0.2l0.1-0.1l0,0c0-0.1,0-0.3,0.1-0.4l0,0
		c0-0.2,0.1-0.4,0.2-0.5v-0.2l0,0c0-0.1,0-0.1,0.1-0.1v-0.3l0,0l0.1-0.1l0,0c1.8-6,4.3-11.9,10.4-15.9l0.2-6.5l2.6-8.1l0.6-3.3
		c0.3-1.1,1.2-4.5,1.6-5.5c1.3-2.4,2.3-2.3,1.2-5.3c1.8-2.8,0.6-8.9,6.7-9.3c4.6-1.7,6.3,3.9,10,4.3c4.5,1.3,11.2,2.1,14.7-2.2
		c5.6,0.7,9.7-3.3,13.8-1.9c2.5-7.8,9.5,1.9,13-1.7c0.8,0.3,1.6,0.5,2.5,0.5l3.5,2.6l3.3,2c3.3-2.5,5.9,2,8.7-1.7l7.7,6
		c2.4,2.5-1,5.9-0.4,8.4c0.6,0.9,2.3,1,3.2,1.5l-4.8,6.1c-4.4,5.1-5.9,11.8-5.5,18.4c-3,2.3-4.4,6.1-3.7,9.8c0.1,2,0.5,4,1.2,5.9
		l0,0c0.5,1.3,0.9,2.6,1.1,4v0.9l-0.3-0.6c-0.5,0.6-1.2-0.5-1.4,0.3c-0.1,0.5,0.2,2.2,0.1,2.7c-0.5,4.6,1.8,10.2,2.8,14.7l3.9,3.9
		c1-0.5,2.2,5,2.2,5C369.3,311.9,369.4,312.3,369.5,312.6L369.5,312.6z M269.3,280.3v-0.2 M266.4,233.1c-0.1-0.1-0.1-0.2-0.2-0.2
		C266.3,232.9,266.3,233,266.4,233.1L266.4,233.1z M266.2,232.9C266.2,232.8,266.1,232.8,266.2,232.9
		C266.1,232.8,266.2,232.8,266.2,232.9L266.2,232.9z"/>
	<text transform="matrix(1.24 0 0 1 287.5498 273.5303)" class="st9 st2 st3">DEMOCR</text>
	<text transform="matrix(1.24 0 0 1 308.791 273.5303)" class="st9 st2 st3">A</text>
	<text transform="matrix(1.24 0 0 1 311.8164 273.5303)" class="st9 st2 st3">TIC REPUBLIC</text>
	<text transform="matrix(1.24 0 0 1 303.9395 280.5303)" class="st9 st2 st3">O</text>
	<text transform="matrix(1.24 0 0 1 307.6475 280.5303)" class="st9 st2 st3">F</text>
	<text transform="matrix(1.24 0 0 1 310.4248 280.5303)" class="st9 st2 st3"> </text>
	<text transform="matrix(1.24 0 0 1 311.6772 280.5303)" class="st9 st2 st3">C</text>
	<text transform="matrix(1.24 0 0 1 315.0254 280.5303)" class="st9 st2 st3">ONGO</text>
	<path id="Congo_Airways" class="st4" d="M323,263.6c0.7,0,1.3-0.6,1.3-1.3s-0.6-1.3-1.3-1.3s-1.3,0.6-1.3,1.3
		S322.3,263.6,323,263.6z"/>
</g>
<g id="Angola_1_">
	<path id="Angola" class="st11" d="M324.5,332.9L324.5,332.9l-1.5,2.9l0.8,2.4l0.6,3.5l-1.4,2.4h-2c-2.8,0-6.9,0.2-9.7,1.3
		l-0.5,20.8l7.4,7.4c1.1,0.7,1.2,1.4,0.9,1.9c-0.1,0.4-0.4,0.6-0.5,0.9c-0.7,0.9-5,1.6-5,1.6c-2.5,0.5-5.2,1.7-8.4,1.3
		c-6.4-2.3-15.2,1-20.5-4.7c-8.5-0.7-26.2,1.9-34.2-2.3l-7.8,2.3l0,0c-0.3-2.1-0.3-4.2,0.1-6.3c-0.3-6.1,5.1-11,3.6-17.7
		c1.3-3.7,4.1-7,6.3-10.6v-0.2c0.1,0,0.1,0,0.1-0.1l0,0l0,0l0.1-0.1v-0.1l0,0c0.1,0,0.1,0,0.1-0.1l0,0v-0.1c0.1,0,0.1,0,0.1-0.1l0,0
		l0,0c0-0.1,0-0.1,0.1-0.1l0,0V339c0-0.1,0-0.1,0.1-0.1l0,0v-0.1l0.1-0.1v-0.1l0,0c0.1-0.1,0.1-0.2,0.2-0.3l0,0
		c0.1-0.2,0.2-0.3,0.3-0.5l0,0c0.4-0.8,0.7-1.6,1-2.5l0,0c0.1-0.3,0.2-0.6,0.3-0.9l0,0c0.1-0.3,0.1-0.5,0.2-0.9
		c0.5-5.6-4.6-8.7-4.8-14c0.3-3.6,1.4-6.6,0-10.1c-0.1-0.1-0.2-0.3-0.4-0.5l0,0v-0.1c-0.1-0.1-0.2-0.3-0.3-0.4s-0.1-0.1-0.1-0.2
		s-0.2-0.3-0.3-0.4l-0.1-0.1c-0.1-0.2-0.2-0.3-0.3-0.5c0-0.1,0-0.1-0.1-0.1l0,0c-0.1-0.2-0.2-0.3-0.3-0.5l0,0
		c-0.1-0.2-0.2-0.3-0.3-0.5l0,0c0-0.1,0-0.1-0.1-0.1c0-0.2-0.1-0.3-0.2-0.5l0,0c-0.1,0-0.1,0-0.1-0.1l0,0c-0.1-0.2-0.2-0.3-0.3-0.5
		l0,0v-0.1c-0.2-0.3-0.4-0.7-0.5-1.1l0,0c-0.1-0.2-0.2-0.3-0.3-0.5l0,0c-0.9-1.8-1.6-3.7-2.4-5.6l0.7-0.6l2-1l24.1,0.7l2.2,2.8
		l2.3,2.5l0.8,3.7l2.3,2.3l1.2,2.4c4.9-2.5,13.7,5.7,14.4-5.8l4.6-1c3.6,3.2,5.4,0.2,9.7,2l0.7,14.3c2.3,3.7,3.9,7.6,3.3,11.4
		l10.1-1l1.4,1.5L324.5,332.9L324.5,332.9z M249.4,289c0.7-1.4-1.5-2.3-2.3-3.1l-5.4,4.1l-0.3,0.1c0.7,1.6,1.4,3.2,2.1,4.9l1.9-0.6
		c-0.5-5.1,1.8-5.2,4.5-5L249.4,289L249.4,289z"/>
	<text transform="matrix(1.24 0 0 1 265.9097 341.2598)" class="st9 st2 st3">ANGOL</text>
	<text transform="matrix(1.24 0 0 1 283.2324 341.2598)" class="st9 st2 st3">A</text>
	<path id="TAAG_Angola_Airways" class="st4" d="M289,333.7c0.7,0,1.3-0.6,1.3-1.3s-0.6-1.3-1.3-1.3s-1.3,0.6-1.3,1.3
		S288.3,333.7,289,333.7z"/>
</g>
<path id="Gabon" class="st0" d="M250.1,242.2c-4.2-0.5-10.6-3.8-12.9-0.7l-0.3,6.7h-11c-0.5,3.1-1.2,6.2-2,9.2
	c-7.3,5.5,2.5,10.9,4.4,17c3.4,2.1,6.3,4.8,8.6,8h0.3c8.4-0.3-1.2-7.1,3.1-10.1c5,2.5,5.9-7.1,9.4,0c3.3-0.5,5.2,1.7,7.7-1
	c0.3-3.6,4.5-10-0.9-12.8c-3.7-3-0.4-6,2.1-8.6c-1.4-3.8-4-3-6.8-2C248.4,246.1,250.4,244.4,250.1,242.2L250.1,242.2z M237.1,282.6
	c-0.1-0.1-0.1-0.1-0.1-0.2C237.1,282.5,237.1,282.5,237.1,282.6z"/>
<text transform="matrix(1.24 0 0 1 230.9097 261.0098)" class="st9 st2 st10">GABON</text>
<path id="São_Tomé_and_Príncipe" class="st0" d="M205.6,251.9c-1.2,0.4-1.1,2.5-0.4,3.1c0.1,0.1,0.1,0.1,0.2,0.1
	c0.3,0.1,0.6,0.1,0.9-0.1l0.3-0.3c0.1-0.1,0.1-0.1,0.1-0.2c0.1-0.1,0.1-0.3,0.2-0.4c0.2-0.6,0.1-1.2-0.3-1.7
	c-0.1-0.1-0.1-0.2-0.2-0.2c0-0.1,0-0.1-0.1-0.1h0c-0.1,0-0.1,0-0.1-0.1l0,0c-0.1-0.1-0.2-0.1-0.3-0.2h-0.2
	C205.7,251.9,205.7,251.9,205.6,251.9L205.6,251.9z"/>
<text transform="matrix(1.24 0 0 1 180.5195 258.98)" class="st1 st2 st6">S</text>
<text transform="matrix(1.24 0 0 1 181.9951 258.98)" class="st1 st2 st6">Ã</text>
<text transform="matrix(1.24 0 0 1 183.6074 258.98)" class="st1 st2 st6">O</text>
<text transform="matrix(1.24 0 0 1 185.4673 258.98)" class="st1 st2 st6"> </text>
<text transform="matrix(1.24 0 0 1 186.0127 258.98)" class="st1 st2 st6">T</text>
<text transform="matrix(1.24 0 0 1 187.4883 258.98)" class="st1 st2 st6">OMÉ</text>
<text transform="matrix(1.24 0 0 1 193.0063 258.98)" class="st1 st2 st6"> </text>
<text transform="matrix(1.24 0 0 1 193.5645 258.98)" class="st1 st2 st6">AND PRÍNCIPE</text>
<g id="Equatorial_Guinea_1_">
	<path id="Equatorial_Guinea" class="st0" d="M231.6,240.8c-1.3,0-2.5,0.2-3.8,0.4l-0.5-0.1c-0.3,1.5-0.6,3.1-0.9,4.7
		c-0.2,0.8-0.3,1.5-0.4,2.3h11l0.3-6.7C235.5,240.9,233.5,240.7,231.6,240.8L231.6,240.8z M219,233.9c-2.5-1.1,0.3-3.3,1.4-3.3
		C222.9,231.6,220.2,233.6,219,233.9L219,233.9z"/>
	<text transform="matrix(1.24 0 0 1 187.1094 238.8701)" class="st1 st2 st10">E</text>
	<text transform="matrix(1.24 0 0 1 189.3047 238.8701)" class="st1 st2 st10">Q</text>
	<text transform="matrix(1.24 0 0 1 192.082 238.8701)" class="st1 st2 st10">U</text>
	<text transform="matrix(1.24 0 0 1 194.7852 238.8701)" class="st1 st2 st10">A</text>
	<text transform="matrix(1.24 0 0 1 197.0547 238.8701)" class="st1 st2 st10">T</text>
	<text transform="matrix(1.24 0 0 1 199.2617 238.8701)" class="st1 st2 st10">ORIA</text>
	<text transform="matrix(1.24 0 0 1 207.9663 238.8701)" class="st1 st2 st10">L</text>
	<text transform="matrix(1.24 0 0 1 210.0371 238.8701)" class="st1 st2 st10"> GUINE</text>
	<text transform="matrix(1.24 0 0 1 222.5239 238.8701)" class="st1 st2 st10">A</text>
	<path id="Cronos_Airways" class="st4" d="M231.2,245.5c0.4,0,0.6-0.3,0.6-0.7c0-0.4-0.3-0.6-0.6-0.6c-0.4,0-0.6,0.3-0.6,0.7
		C230.6,245.2,230.9,245.5,231.2,245.5z"/>
</g>
<g id="Ethiopia_1_">
	<path id="Ethiopia" class="st0" d="M445.7,168.2c-1.4,2.6-4.1,5.1-3.1,8.4c0.9,1.8,3.2,2.4,4.3,1.1c2.3-1,4,1.7,2.7,3.9
		c9,14.1,18,9.8,31.5,15.1l2.6,1.1l-17.6,22c-4.7-1.5-11.1,2.6-16.1,5l-4.2,3.1c-2.4-0.5-4.8-0.3-7.1-2.8c-6.8,0.6-9,9.8-15.8,5.5
		l-8.9-5.8c-1.8-0.5-4.1,0.1-6.2-0.4c-0.1-0.3-0.3-0.6-0.5-0.9c-0.2,0.1-0.5,0.2-0.6,0.4l-0.4-0.2v-0.1l-1.1-0.8
		c-1-4.6-7.1-7.1-7.7-12.2c-2-6.4-16.6-6.8-9.4-13c1.1,1.3,5.1-1.4,4.3-3.1c1.4-6-1.3-11.9,5.3-16c-0.8-3.3,1.5-7,3.3-10.1
		c5-2.2,4.9-7.9,5.4-12.5l0.4,0.1l3.5-0.3c1-0.7,1.8-1.4,2.6-2.3c1.1-1.3,2-1.1,3.4-1.2l4,2l2.3-0.7c0.9-0.3,2.5-0.3,2.8,1.2
		l7.5,2.3l2.5,1.5c0.9,1.7,2.5,2.9,3.4,4.2c0.7,1.7,2.6,2.8,4.2,3.7l2.4,1.4L445.7,168.2L445.7,168.2z"/>
	<text transform="matrix(1 0 0 1 418.4399 202.24)" class="st9 st2 st8">ETHOPI</text>
	<text transform="matrix(1 0 0 1 436.39 202.24)" class="st9 st2 st8">A</text>
	<path id="Ethiopian_Airlines" class="st4" d="M438.2,207.6c0.7,0,1.3-0.6,1.3-1.3s-0.6-1.3-1.3-1.3s-1.3,0.6-1.3,1.3
		S437.5,207.6,438.2,207.6z"/>
</g>
<g id="Cape_Verde_1_">
	<path id="Cape_Verde" class="st14" d="M4.4,126.4L4.4,126.4v-0.7l2.2,0.3C6.5,126,4.4,126.4,4.4,126.4z M7.3,141.5L7.3,141.5l1-0.1
		L7.3,141.5z M11.8,141.7L11.8,141.7l0.5-2.2L11.8,141.7z M15.4,139.8L15.4,139.8l-0.3,0.2L15.4,139.8z M17.9,134.9L17.9,134.9
		l0.2-0.3l0.1,0.2C18.2,134.8,17.9,134.9,17.9,134.9z M18.4,128.9L18.4,128.9l0.1,1.5L18.4,128.9z M5.7,128.1L5.7,128.1l1.1-0.1
		L5.7,128.1z M9.3,129.4L9.3,129.4l2.2,0.4L9.3,129.4z"/>
	<text transform="matrix(1 0 0 1 0 121.5)" class="st1 st2 st10">C</text>
	<text transform="matrix(1 0 0 1 2.02 121.5)" class="st1 st2 st10">APE</text>
	<text transform="matrix(1 0 0 1 7.73 121.5)" class="st1 st2 st10"> </text>
	<text transform="matrix(1 0 0 1 8.39 121.5)" class="st1 st2 st10">VERDE</text>
	<path id="Cabo_Verde_Airlines" class="st4" d="M5.5,126.7c0.4,0,0.7-0.3,0.7-0.6c0-0.4-0.3-0.7-0.7-0.7s-0.7,0.3-0.7,0.7
		C4.9,126.4,5.2,126.7,5.5,126.7z"/>
</g>
<path id="Eritrea" class="st0" d="M449.4,165.6l0.4,0.2L449.4,165.6z M449.8,165.8l-4,2.4h-0.1l-0.1-0.3l-2.4-1.4
	c-1.6-0.9-3.5-2-4.2-3.7c-0.9-1.4-2.5-2.5-3.4-4.2l-2.5-1.5l-7.5-2.3c-0.3-1.4-1.9-1.4-2.8-1.2l-2.3,0.7l-4-2
	c-1.4,0.1-2.3-0.1-3.4,1.2c-0.7,1.1-1.7,1.5-2.6,2.3l-3.5,0.3l-0.4-0.1c0.1-0.6,0.2-1.2,0.4-1.8c-1.9-4.5,2.3-8.8,1.4-14l0.7-2.4
	l9.5-7.3l0.1-0.5l0.4-0.2c3.4,5.2,4.6,12.3,7.2,17.2c3.6,2.1,7.4,5.1,11,6.3c5,2.3,5.9,8.2,11.1,9.7c0.3,1,1.3,1.8,2.2,2.8l-0.3-0.1
	L449.8,165.8L449.8,165.8z"/>
<text transform="matrix(1 0 0 1 434.37 149)" class="st1 st2 st3">ERITRE</text>
<text transform="matrix(1 0 0 1 447.96 149)" class="st1 st2 st3">A</text>
<path id="Djibouti" class="st0" d="M452.5,174.9l-2.8,3.1l-0.3,0.2c-0.6-0.7-1.6-0.9-2.4-0.5c-1.1,1.4-3.4,0.7-4.3-1.1
	c-1.1-3.2,1.7-5.8,3.1-8.4h0.1l4-2.4h0.6c1.1,0.8,1.8,1.9,2.2,3.2c-3,2.6-1.7,4.1,0.4,5.5L452.5,174.9L452.5,174.9z"/>
<text transform="matrix(1 0 0 1 454.0601 171.12)" class="st1 st2 st10">D</text>
<text transform="matrix(1 0 0 1 456.15 171.12)" class="st1 st2 st10">JIBOUTI</text>
<path id="Somalia" class="st0" d="M445.4,265.7l-5.1-5.5v-24.8l5.5-7.7l4.2-3.1c5-2.3,11.4-6.5,16.1-5l17.6-22.1l-2.6-1.1
	c-13.5-5.3-22.5-1-31.5-15.1c0.7-1.1,0.6-2.5-0.3-3.4l0,0l0.3-0.2l2.8-3.1l0.5-0.4c2,1.4,4.8,2.6,5,4.8c10.6,0.2,23.9-6.4,34.1-6.2
	c4.5-0.9,6.8-5,11.3-4.8c3.9,1.8-1,4.8,2.1,7.4c-1.3,13.1-7.8,21.1-11.4,33.5c-5.2,14.2-18.8,25.3-31,36.6c-1.8,1.6-3.5,3.2-5.1,4.9
	c-5.6,4.3-8,10.7-12.2,15.4L445.4,265.7L445.4,265.7z"/>
<text transform="matrix(1 0 0 1 454.3101 231.65)" class="st9 st2 st3">SOMALI</text>
<text transform="matrix(1 0 0 1 469.3201 231.65)" class="st9 st2 st3">A</text>
<g id="Kenya_1_">
	<path id="Kenya" class="st11" d="M401,216.3c0.1,0.1,0.2,0.2,0.2,0.3h-0.4l-6.4,8.1c-1.1,0.6-2.2,1.3-3,2.3l0,0l0.5,0.3
		c2.9,5.9,11.1,13.8,6.7,20.1c-2.7,2.3-4.8,5.4-5.9,8.8c1.1,1.2,2.3,2.1,3.6,0.9c2.1,1.9-3.2,2.4-1.9,4.7c0.1,0.4,0.2,0.9,0.1,1.3
		l0,0l23.8,13c-0.4,1.4,0,3,1,4.1l9.8,7.6c1.7-3.1,4-6.1,5.8-9.5c-1.2-4.2,2.6-6.3,5.7-7.7c2.2-1,4.1-2.4,5.6-4.2l-0.3-0.4l-5.1-5.5
		v-24.8l5.5-7.7c-2.4-0.5-4.8-0.3-7.1-2.8c-6.8,0.6-9,9.8-15.8,5.5l-8.9-5.8c-1.8-0.5-4.1,0.1-6.2-0.4c0-0.1-0.1-0.2-0.1-0.3l0,0
		c1.6,3.6,0.8,7.9,1.6,10.8l-1-0.5c-1.2-0.9-2.3-1.7-2.6-3.3c-0.3-1.8-1.1-5.3,0.7-7h-0.2v-0.6l-1.1-0.6
		C405.1,220.2,402.9,218.3,401,216.3L401,216.3z"/>
	<text transform="matrix(1 0 0 1 411.21 253.28)" class="st9 st2 st8">KEN</text>
	<text transform="matrix(1 0 0 1 421.34 253.28)" class="st9 st2 st8">Y</text>
	<text transform="matrix(1 0 0 1 424.23 253.28)" class="st9 st2 st8">A</text>
	<path id="Timbis_Air" class="st4" d="M419.1,259c0.7,0,1.3-0.6,1.3-1.3s-0.6-1.3-1.3-1.3s-1.3,0.6-1.3,1.3S418.4,259,419.1,259z"/>
	<path id="Safe_Air_Company" class="st4" d="M413.3,258c0.7,0,1.3-0.6,1.3-1.3s-0.6-1.3-1.3-1.3s-1.3,0.6-1.3,1.3
		S412.6,258,413.3,258z"/>
	<path id="Kenya_Airways" class="st4" d="M415.3,262.6c0.7,0,1.3-0.6,1.3-1.3s-0.6-1.3-1.3-1.3s-1.3,0.6-1.3,1.3
		S414.6,262.6,415.3,262.6z"/>
	<path id="Astral_Aviation" class="st4" d="M420.1,263.6c0.7,0,1.3-0.6,1.3-1.3s-0.6-1.3-1.3-1.3s-1.3,0.6-1.3,1.3
		S419.4,263.6,420.1,263.6z"/>
</g>
<path id="Uganda" class="st0" d="M392.3,256.1c1.1-3.4,3.2-6.4,5.9-8.8c4.4-6.3-3.8-14.2-6.7-20.1l-0.5-0.3
	c-0.6,0.7-1.1,1.4-1.6,2.2c-6.4,1.7-12.4,1.2-18.6,1.7c2.4,2.5-1,5.9-0.4,8.4c0.6,0.9,2.3,1,3.2,1.5l-4.8,6.1
	c-4.4,5.1-5.9,11.8-5.5,18.4l5-0.5h0.5v0.1c0.1-0.9,0.6-1.6,2.2-2.2l7.3-0.3v0.2c-0.2-2.5,0.7-4.9,2.3-6.8c1.7-1.3,6.3,1.4,8.4-2.4
	C390.1,253.4,391.2,254.9,392.3,256.1L392.3,256.1z M368.9,264.7L368.9,264.7 M368.9,264.8L368.9,264.8z"/>
<text transform="matrix(1 0 0 1 375.71 247.03)" class="st9 st2 st3">UGAN</text>
<text transform="matrix(1 0 0 1 387.37 247.03)" class="st9 st2 st3">D</text>
<text transform="matrix(1 0 0 1 390.14 247.03)" class="st9 st2 st3">A</text>
<g id="Cameroon_1_">
	<path id="Cameroon" class="st0" d="M227.3,241.1c0.4-1.5,0.7-3.1,1.1-4.5c1-5.5-4.1-6.8-6.4-11.1c-0.8-0.8-1.7-1.4-2.8-1.7l0.1-0.4
		l0.1-0.8l1.2-6l6.7-6.9c2.9-2.4,5.1-0.7,7.5,0.5c1.2,0.7,2.6,1.1,4,1l4-4.7l2.3-4.2l0.2-2.8l0.9-4.1l2.3-2.1l2.3-4.4l2.9-3.8
		l1.2-3.9l7.3-6.3c1.1,2.4,1.4,5.1,0.8,7.7c0.4,1.1,4.7,5.4,0.3,5.3c-3.2-0.4-6.4-0.7-7,2.3c3.2,5,11.4,9.6,9.8,14.7l-0.2,0.4
		l-2.4,4.1l-2.1,1.6l-0.5,2l-1.7,2.7c0.1,1.3,0.3,2.6,0.5,4.1c0.2,1.2,0.5,2.3,0.8,3.5c0.1,0.2,0.1,0.5,0.2,0.7
		c0,0.7,0.1,1.4,0.1,2.3l0,0c0.1,0.1,0.1,0.3,0.1,0.5l0,0v0.1l0,0c0,0.2,0,0.3,0.1,0.5l0,0v0.1l0,0v0.2l0,0v0.1h0.1v0.2l0,0v0.1l0,0
		l0.1,0.1v0.1l0,0v0.1l0,0l0.1,0.1c0.7,1.7,2.6,1.3,3.7,2.9c0.7,1,1.5,2,2.4,2.9c0.8,0.9,1.4,3.1,2.3,3.9l1.3,1.9l-0.5,3.4
		c-6.3,1.5-13.2-3-20.1-1c-4.2-0.5-10.6-3.8-12.9-0.7c-3.1-0.8-6.3-0.9-9.4-0.3L227.3,241.1L227.3,241.1z M266.2,205.4h-0.6
		 M265.9,205L265.9,205z M265.8,205.2L265.8,205.2"/>
	<text transform="matrix(1 0 0 1 230.19 224.48)" class="st9 st2 st3">C</text>
	<text transform="matrix(1 0 0 1 232.88 224.48)" class="st9 st2 st3">AMEROON</text>
	<path id="Camair_Co." class="st4" d="M248.2,217.1c0.7,0,1.3-0.6,1.3-1.3s-0.6-1.3-1.3-1.3s-1.3,0.6-1.3,1.3
		S247.5,217.1,248.2,217.1z"/>
</g>
<path id="Nigeria" class="st0" d="M179.4,210.2l1.1-3.2l-1.1-2.8l-0.7-2.4l0.7-2.8v-2.9c3.5-3.2,4.5-6.2,6.1-9.5
	c0.5-0.9,0.9-1.9,1.5-2.8l-1.6-10.8l7.7-12c6.6-3.6,11.9,1.8,17,4.6c3.9-2.6,9.6,0.6,13.7,2.4l9.7-3.7l11,2.3
	c3.2-0.4,6.3-6.4,9.4-4.3l1.1,1.1c-0.1,0.5-0.1,0.9-0.1,1.4c0.1,0.4,0.2,0.8,0.2,1.2c0.4,2.5,1.8,3.2,3.4,3.2
	c1.3,1.8,2.5,3.8,3.4,5.9l0,0l-7.3,6.3l-1.2,3.9l-2.9,3.8l-2.3,4.4l-2.3,2.1l-0.9,4.1l-0.2,2.8l-2.3,4.2l-4,4.7
	c-1.4,0.1-2.8-0.3-4-1c-2.3-1.2-4.6-2.9-7.5-0.5l-6.7,6.9l-1.2,6l-0.1,0.8l0.2,0.2c-5.1-1.6-11.2,4.2-17.3,1.4
	c-5.6-2-3.9-9.1-9-12.4C188.4,209.6,183.9,209.8,179.4,210.2L179.4,210.2z"/>
<g id="Egypt_1_">
	<path id="Egypt" class="st0" d="M328.1,104.9l-1.8-50.8c-4.2-4.1,1.9-8-1-12.3l1.6-2.5l0.5-0.6c0.6,0.5,1.3,1,1.8,1.5
		c8.6-2.4,14.9,2,23.9,3.7c3.4-1.4,6.7-3,9.9-4.7l0,0c0.2-0.7,2.5-0.1,2.5-0.1c2.3,1.2,4.9,3.4,7.4,2.2c0.5-0.9,2.9-0.2,2.9-0.2
		c1.9,0.7,3.7,0,5.3-1.2c0.1,3.3,3,8.9,4.6,11.7l0.5,1.3v0.5l0,0c-0.5,0.5-0.7,1.3-0.5,2c-0.3,1.3-0.5,2.7-0.5,4.1
		c-0.4,1.1-0.9,2.2-1.5,3.2c-0.5,0.6-1,0.9-1.4,0.5l-0.5-0.5c-2.3-2.3-6-9.3-6-9.3c-0.7-1.3-1.7-2.5-2.2-3.7
		c-0.2-0.3-0.5-0.5-0.9-0.6c-1,0-1.9,1.4-1.7,2.7c1,2,2.5,3.8,4.3,5.2c1.1,2,2.5,4,4.1,5.7c0.3,0.3,0.7,0.6,1.2,0.8
		c0.4,1,0.5,2,0.5,3c3,7.4,9.4,14,13.9,21.1c0.6,0.9,0.8,2,0.5,3c-1.4,6.2,7.7,8.6,10.1,13.7c0.1,0.2,0.2,0.4,0.3,0.6l-1.4,0.4
		h-75.4C329.1,105.3,328.1,104.9,328.1,104.9z"/>
	<text transform="matrix(1 0 0 1 351.12 77.84)" class="st9 st2 st8">E</text>
	<text transform="matrix(1 0 0 1 354.08 77.84)" class="st9 st2 st8">G</text>
	<text transform="matrix(1 0 0 1 357.47 77.84)" class="st9 st2 st8">YP</text>
	<text transform="matrix(1 0 0 1 363.86 77.84)" class="st9 st2 st8">T</text>
	<path id="Nile_Air" class="st4" d="M369.8,67.6c0.7,0,1.3-0.6,1.3-1.3s-0.6-1.3-1.3-1.3s-1.3,0.6-1.3,1.3S369.1,67.6,369.8,67.6z"
		/>
	<path id="Egypt_Air" class="st4" d="M351.6,91.3c0.7,0,1.3-0.6,1.3-1.3s-0.6-1.3-1.3-1.3s-1.3,0.6-1.3,1.3S350.9,91.3,351.6,91.3z"
		/>
</g>
<text transform="matrix(1 0 0 1 206.94 194.63)" class="st9 st2 st3">NIGERI</text>
<text transform="matrix(1 0 0 1 220 194.63)" class="st9 st2 st3">A</text>
<g id="Tunisia_1_">
	<path id="Tunisia" class="st0" d="M233.1,48.2c-0.7-3.6-1.7-7.6-2.1-11.7c-3.8-2-4-7.3-7.7-9.8v-5c6.2-5,5-12.9,6.6-18.2l0.1-0.7
		c1.3-0.1,2.6-0.6,3.7-1.4c3.2-2.9,4.5-0.2,6.7,1.4c0.5,0.4,1.2,0.6,1.9,0.6c0,0,3.6-0.8,1.4,2.1c-0.7,0.8-1.3,1.8-1.6,2.9
		c4.3,4.5,1,10.4-3.6,12.7c0.2,3.9,4.1,4.4,7.2,5.9l-0.1,0.6c3,7.9-6.4,7.1-8.1,12.3l-0.3,1.5c-0.4,2.5-0.6,4.5-3.9,6.8H233.1z"/>
	<text transform="matrix(1 0 0 1 229.62 16.88)" class="st9 st2 st10">TUNISI</text>
	<text transform="matrix(1 0 0 1 239.42 16.88)" class="st9 st2 st10">A</text>
	<path id="Nouvelair" class="st4" d="M236.5,10.6c0.7,0,1.3-0.6,1.3-1.3s-0.6-1.3-1.3-1.3s-1.3,0.6-1.3,1.3S235.8,10.6,236.5,10.6z"
		/>
	<path id="Express_Air_Cargo" class="st4" d="M236.5,30.8c0.7,0,1.3-0.6,1.3-1.3s-0.6-1.3-1.3-1.3s-1.3,0.6-1.3,1.3
		S235.8,30.8,236.5,30.8z"/>
</g>
<path id="Chad" class="st0" d="M266.1,205.4h-0.2l-0.2-0.2l0.1-0.2c1.6-5-6.7-9.6-9.8-14.7c0.6-3.1,3.8-2.7,7-2.3
	c4.4,0.1,0.1-4.2-0.3-5.3c0.6-2.6,0.3-5.3-0.8-7.7l0,0c-0.9-2-2-3.9-3.3-5.7c2.5-0.9,4.7-2.5,4.2-3.4c-6.2-11.7-7.6-5.6-7.8-2.5
	v-0.1l-1-1c-0.2-0.4-0.4-0.6-0.4-0.8l-0.3-3.3c2.1-5.7,7.3-13,13.4-17.9l0.9-19.2l2.4-4.7c-6.8-5.8-3.5-11.9-6.1-18v-0.3l8-4.5
	l50.2,27.2l0.7,27.1l-6.5,1.9c2,4-5.2,6.1-3.3,10.4c-1.9,1.5-1.2,4.5-1.7,6.9c-1.1,0.7,0.8,2.6,0.8,2.6c1.7,1.1,1.8,4.1,1.4,5.6
	c-0.2,2.8,5.4,3.6,3.3,6.7c-7.7-4.5-8.4,8.5-15.5,9.6c-3.9,5-11.3,0.8-13.3,8.1C280.8,203.3,272.8,204.7,266.1,205.4z M265.9,205
	L265.9,205z"/>
<text transform="matrix(1 0 0 1 281.44 149)" class="st9 st2 st8">CHAD</text>
<g id="Libya_1_">
	<path id="Libya" class="st0" d="M322.3,120.8l-50.2-27.2l-11.7,6.5c-3.4-4.2-9.5-4.3-15-6.5c-0.1-4.9-6.8-7.4-10-7.7
		c-0.5-4.1-7.4-8-3.1-11.7c0.5-4.1,3.2-7.9,1.1-12.7c1.5-3.8,0.8-8.3-0.3-13.3h0.3c3.2-2.3,3.5-4.2,3.9-6.8l0.3-1.5
		c1.7-5.2,11.1-4.4,8.1-12.3l0.1-0.6h-0.1c1.2,0.4,2.2,1.2,2.9,2.3c4.7,2.3,10.2,1.4,15.1,2.8c2.1,0.5,4.1,1.6,5.6,3.2
		c0.5,8.6,10.8,5.8,15.8,8.4c3.1,0.2,4.9,5.3,8.7,4.3c7.6-3.9,1-8.4,4.3-12.4c1.6-1.3,3.3-2.4,5-3.4c2.8-1.5,5.4-2.1,8.7-0.9
		c0.2,0.3,0.5,0.6,0.8,0.9c4.1,3.8,10.3,3.2,15.1,6.7h-0.1l-0.5,0.6l-1.6,2.5c2.9,4.3-3.2,8.2,1,12.3l1.8,50.8l0.5,13.6
		C325.9,120,323.6,117.1,322.3,120.8L322.3,120.8z"/>
	<text transform="matrix(1 0 0 1 276.19 69.88)" class="st9 st2 st15">LI</text>
	<text transform="matrix(1 0 0 1 281.25 69.88)" class="st9 st2 st15">B</text>
	<text transform="matrix(1 0 0 1 285.09 69.88)" class="st9 st2 st15">Y</text>
	<text transform="matrix(1 0 0 1 288.56 69.88)" class="st9 st2 st15">A</text>
	<path id="Libyan_Airlines" class="st4" d="M255,62.8c0.7,0,1.3-0.6,1.3-1.3s-0.6-1.3-1.3-1.3s-1.3,0.6-1.3,1.3S254.3,62.8,255,62.8
		z"/>
	<path id="Afriqiyah_Airways" class="st4" d="M292,87.6c0.7,0,1.3-0.6,1.3-1.3s-0.6-1.3-1.3-1.3s-1.3,0.6-1.3,1.3
		S291.3,87.6,292,87.6z"/>
</g>
<g id="Algeria_1_">
	<path id="Algeria" class="st0" d="M245.3,93.6c-13,9-24.5,12.7-36.7,23.9c-5.6,5-15.4,4.1-21.1,4.6c-0.2-7.7-11.7-6.4-13.1-14
		l-54.2-47.8l-0.1-0.2l0.5-3.2l1.9-7.4c4.3-1.4,9.1-5.6,14.1-4.3c1.6-2.5,4.4-0.6,6.4-1.7c3.3-5.6,9.7-3.1,12-9.4
		c3.9-3.5,9.2-4.8,14.3-3.6c2.7-3.1-2.1-6.3-0.9-9.1l-0.1-11.7c0.9,0.1,1.9,0,2.8-0.3c4.5-1.7,9.6-3.6,14.4-5.3
		c8.3-1.6,16.8-4.8,24.4-1.8c1.4,0.8,3.1,0.7,4.4-0.1c5.3-2.4,11,1.1,15.8,0.6H230l-0.1,0.7c-1.6,5.3-0.4,13.1-6.6,18.2v5
		c3.7,2.5,3.9,7.8,7.7,9.8c0.4,4.1,1.4,8.1,2.1,11.7c1.1,5,1.8,9.5,0.3,13.3c2.1,4.8-0.5,8.6-1.1,12.7c-4.3,3.7,2.5,7.7,3.1,11.7
		C238.5,86.2,245.2,88.7,245.3,93.6L245.3,93.6z M166.7,9.3L166.7,9.3"/>
	<text transform="matrix(1 0 0 1 178.06 63.88)" class="st9 st2 st15">A</text>
	<text transform="matrix(1 0 0 1 182.12 63.88)" class="st9 st2 st15">L</text>
	<text transform="matrix(1 0 0 1 185.49 63.88)" class="st9 st2 st15">GERI</text>
	<text transform="matrix(1 0 0 1 198.91 63.88)" class="st9 st2 st15">A</text>
	<path id="Air_Algerie" class="st4" d="M195.2,26.8c0.7,0,1.3-0.6,1.3-1.3s-0.6-1.3-1.3-1.3s-1.3,0.6-1.3,1.3S194.5,26.8,195.2,26.8
		z"/>
	<path id="Afriqiyah_Airways-2" class="st4" d="M187.1,54c0.7,0,1.3-0.6,1.3-1.3s-0.6-1.3-1.3-1.3s-1.3,0.6-1.3,1.3
		S186.4,54,187.1,54z"/>
</g>
<path id="Western_Sahara" class="st0" d="M120.7,56.9l-2.2,12.5l-19.3-1.6l-3.6,18.1c-3.2-0.4-6.2,1.3-7.7,4.1
	c-0.3,3.1-0.5,8.3-4.5,9.1l-20.7-3.2l-0.3-0.8c0.2-0.2,0.3-0.4,0.5-0.6c4.8-7,7.7-15,14.7-20.5c4.6-1.3,4.5-7.7,7.7-11.4
	c1-1.3,2.5-2.2,4.1-2.5c1.6-2.5,3.8-4.6,6.4-6.1h0.9C96.5,53.9,120.7,56.9,120.7,56.9z"/>
<text transform="matrix(0.5822 -0.8131 0.8131 0.5822 75.2001 92.2201)" class="st9 st2 st16">WESTERN </text>
<text transform="matrix(0.5822 -0.8131 0.8131 0.5822 87.177 75.4937)" class="st9 st2 st16">S</text>
<text transform="matrix(0.5822 -0.8131 0.8131 0.5822 88.5574 73.5659)" class="st9 st2 st16">AHAR</text>
<text transform="matrix(0.5822 -0.8131 0.8131 0.5822 94.9376 64.6557)" class="st9 st2 st16">A</text>
<g id="Morocco_1_">
	<path id="Morocco" class="st0" d="M168.4,9.7l0.1,11.7c-1.2,2.8,3.6,6,0.9,9.1c-5.1-1.2-10.4,0.1-14.3,3.6c-2.3,6.3-8.6,3.8-12,9.4
		c-2,1.1-4.8-0.8-6.4,1.7c-5-1.3-9.8,2.9-14.1,4.3l-1.9,7.4l-24.1-3h-0.9c4-2.4,8.3-3.4,12.7-4.6c6.5-3.5,10.8-10,11.6-17.3
		c0.1-0.3,0.1-0.6,0.1-0.9c3.9-9.2,12.2-12.8,20.3-16.7c4.3-2.5,5.1-10.4,10.4-10.1c4.1,4.7,10.4,3.8,15.7,5
		C167.1,9.5,167.8,9.6,168.4,9.7z M95.4,54.1C95.4,54,95.5,54,95.4,54.1C95.5,54,95.4,54,95.4,54.1z"/>
	<text transform="matrix(1 0 0 1 126.89 30.63)" class="st9 st2 st3">MORO</text>
	<text transform="matrix(1 0 0 1 139 30.63)" class="st9 st2 st3">CC</text>
	<text transform="matrix(1 0 0 1 144.39 30.63)" class="st9 st2 st3">O</text>
	<path id="Royal_Air_Maroc" class="st4" d="M145.7,25.5c0.7,0,1.3-0.6,1.3-1.3s-0.6-1.3-1.3-1.3s-1.3,0.6-1.3,1.3
		S145,25.5,145.7,25.5z"/>
</g>
<path id="Madeira_Island_Portugal_" class="st0" d="M80.2,27.9c-0.2,0.6-0.9,0.9-1.5,0.7c-0.4-0.2-0.7-0.5-0.8-1
	c-0.2-0.9,0.9-1.6,1.6-2.1C81.2,25.5,83,27.6,80.2,27.9z"/>
<text transform="matrix(1 0 0 1 58.93 23.23)" class="st1 st2 st10">MADEIR</text>
<text transform="matrix(1 0 0 1 70.3 23.23)" class="st1 st2 st10">A</text>
<text transform="matrix(1 0 0 1 72.23 23.23)" class="st1 st2 st10"> ISLAND (PO</text>
<text transform="matrix(1 0 0 1 89.56 23.23)" class="st1 st2 st10">R</text>
<text transform="matrix(1 0 0 1 91.52 23.23)" class="st1 st2 st10">TUGAL)</text>
<path id="Canary_Islands_Spain_" class="st11" d="M75.1,45.5c-0.6,0.5-1.8,1.1-1.6,2.1v0.3c0,0.1,0,0.1,0.1,0.2v0.1l0,0l0.2,0.2
	c0.4,0.3,0.9,0.4,1.4,0.2h0.2l0.1-0.1l0,0l0.1-0.1c0.1-0.1,0.1-0.2,0.2-0.3V48c0.5,0,0.9-0.2,1.3-0.4l0.1-0.1
	c0.1-0.1,0.1-0.1,0.1-0.2s0-0.1,0.1-0.2v-0.4c-0.1-0.1-0.1-0.1-0.1-0.2C76.7,45.9,75.9,45.6,75.1,45.5z M91.7,45.9
	C91.6,45.9,91.6,46,91.7,45.9C91.6,46,91.7,46,91.7,45.9L91.7,45.9c0.1,0.1,0.1,0.1,0.2,0.1l0,0C91.8,45.9,91.8,45.9,91.7,45.9z
	 M91.6,46c-0.9,0.3-3.4,2.3-2,3.3l1.7-0.4c0.7-0.4,0.9-0.9,0.8-1.3c-0.2-0.5-0.4-0.9-0.6-1.3l0,0C91.5,46.1,91.5,46.1,91.6,46z
	 M82.7,47.4c-0.7,0.5-1.9,1.2-1.7,2.1v0.1c0,0.1,0.1,0.2,0.1,0.3V50l0.1,0.1l0,0c0.4,0.4,1,0.6,1.5,0.4H83c0.1-0.1,0.2-0.1,0.2-0.2
	v-0.1c0-0.1,0.1-0.1,0.1-0.2c0.4,0,0.8-0.2,1.2-0.4c0.1-0.1,0.2-0.2,0.2-0.3V49c0-0.1,0-0.1-0.1-0.2c0-0.1-0.1-0.1-0.1-0.2
	s-0.1-0.2-0.2-0.3C84,47.7,83.4,47.4,82.7,47.4z"/>
<text transform="matrix(1 0 0 1 63.93 43.02)" class="st1 st2 st10">C</text>
<text transform="matrix(1 0 0 1 65.95 43.02)" class="st1 st2 st10">ANA</text>
<text transform="matrix(1 0 0 1 72.32 43.02)" class="st1 st2 st10">R</text>
<text transform="matrix(1 0 0 1 74.2 43.02)" class="st1 st2 st10">Y</text>
<text transform="matrix(1 0 0 1 76.05 43.02)" class="st1 st2 st10"> ISLANDS (S</text>
<text transform="matrix(1 0 0 1 92.92 43.02)" class="st1 st2 st10">P</text>
<text transform="matrix(1 0 0 1 94.63 43.02)" class="st1 st2 st10">AIN)</text>
<path id="Benin" class="st0" d="M185.5,172.9c-1.1-2.2-3.5-3.5-6-3.1c-2.5,7.4-9.4,3.1-11.7,11.2c3.3,5,3.6,10.1,4.8,16l-1,13v0.6
	c0.2,0,0.5-0.1,0.6-0.1c2.4,0,4.9-0.1,7.3-0.4l0,0l1.1-3.2l-1.1-2.8l-0.7-2.4l0.7-2.8V196c3.5-3.2,4.5-6.2,6.1-9.5
	c0.5-0.9,0.9-1.9,1.5-2.8L185.5,172.9L185.5,172.9z"/>
<text transform="matrix(0.3186 -1.1949 0.9659 0.2589 178.0598 190.2396)" class="st9 st2 st17">BENIN</text>
<g id="Togo_1_">
	<path id="Togo" class="st0" d="M167.5,211.1l-2.1-2.4l-1.3-23.4c-0.7-2.6-4.6-5.6-2.4-7.7c2.5,0.7,5.5-1,6.8,1.3l0.1,0.1
		c-0.4,0.6-0.7,1.3-0.8,2c3.3,5,3.6,10.1,4.8,16l-1,13v0.6c-1.4,0.2-2.7,0.5-4,1L167.5,211.1L167.5,211.1z M175.8,210.4L175.8,210.4
		c-0.6,0.1-1.3,0.1-1.9,0.1C174.6,210.5,175.2,210.5,175.8,210.4z M173.6,210.5L173.6,210.5z M173.1,210.5h-0.7"/>
	<text transform="matrix(-6.991266e-02 -1.2385 0.9988 -4.993762e-02 169.3603 202.8804)" class="st9 st2 st18">T</text>
	<text transform="matrix(-6.991266e-02 -1.2385 0.9988 -4.993762e-02 169.2356 200.6729)" class="st9 st2 st18">OGO</text>
	<path id="ASKY_Airlines" class="st4" d="M167.8,189.5c0.7,0,1.3-0.6,1.3-1.3s-0.6-1.3-1.3-1.3s-1.3,0.6-1.3,1.3
		S167.1,189.5,167.8,189.5z"/>
</g>
<path id="Niger" class="st0" d="M188.5,147.1c4.1-6.8,4.3-16.2,4.7-24.7l0.1-0.7c5.2-0.2,11.3-0.7,15.3-4.3
	c12.2-11.2,23.8-14.9,36.7-23.9c5.5,2.2,11.6,2.3,15,6.5l3.7-2v0.3c2.6,6.1-0.6,12.2,6.1,18l-2.4,4.7l-0.9,19.2
	c-6.1,5-11.3,12.2-13.4,17.9l0.3,3.3c0.1,0.3,0.2,0.6,0.4,0.8l-0.1-0.1c-3.1-2.1-6.1,4-9.4,4.3l-11-2.3l-9.7,3.7
	c-4.1-1.8-9.8-5-13.7-2.4c-5.1-2.8-10.4-8.2-17-4.6l-7.7,12c-1.1-2.2-3.5-3.5-6-3.1c-0.2,0.6-0.5,1.1-0.6,1.5l-0.4-0.8
	c-1-2.3-3.1-3.8-4.8-3.6c-2.6-5.1-10-10.2-8.6-16.5l4.8-0.7C175.4,146.4,183,151,188.5,147.1L188.5,147.1z"/>
<text transform="matrix(1.24 0 0 1 219.2397 137.77)" class="st9 st2 st8">NIGER</text>
<path id="Ghana" class="st0" d="M140.7,217.1l0.6-2.8l-2.3-2.2v-4.4l2.9-6.5l2.3-2.7l0.5-3.6l-2.3-7.7c3-3.5-0.7-6,2-9.6h17.4
	c-2.2,2.1,1.7,5,2.4,7.7l1.3,23.4l2.1,2.4l0.1,0.5l0,0c-8.6,2.9-18.3,9.9-27.1,6.1L140.7,217.1L140.7,217.1z"/>
<text transform="matrix(1.24 0 0 1 146.7397 204.7598)" class="st9 st2 st10">GHAN</text>
<text transform="matrix(1.24 0 0 1 157.54 204.7598)" class="st9 st2 st10">A</text>
<path id="Ivory_Coast" class="st0" d="M109.2,221.3c1.3-4,1.3-11.6-4.1-14.7l-0.5-7.2c1.6-1.4,2.3-3.2,1.6-4.8c4.8-2.5,2.3-7.1,1-11
	c0.5-6.8,5.1-2.3,10-4.1c4.2-3.8,5,5.7,9.6,1.9c4.1,8.8,10.7-0.1,15.5,5.8l2.3,7.7l-0.5,3.6l-2.3,2.7l-2.9,6.5v4.4l2.3,2.2l-0.6,2.8
	l-0.3,0.6c0,0.1,0,0.1,0.1,0.1l0,0l-1-0.5c-1.1-1.1-3-0.3-3-0.3c-4.8,1.2-10.2-2.7-13.5-1C119,216.5,113.7,221.2,109.2,221.3
	L109.2,221.3z"/>
<text transform="matrix(1.24 0 0 1 111.6597 204.7598)" class="st9 st2 st10">I</text>
<text transform="matrix(1.24 0 0 1 112.627 204.7598)" class="st9 st2 st10">V</text>
<text transform="matrix(1.24 0 0 1 115.0571 204.7598)" class="st9 st2 st10">O</text>
<text transform="matrix(1.24 0 0 1 117.835 204.7598)" class="st9 st2 st10">R</text>
<text transform="matrix(1.24 0 0 1 120.166 204.7598)" class="st9 st2 st10">Y</text>
<text transform="matrix(1.24 0 0 1 122.46 204.7598)" class="st9 st2 st10"> </text>
<text transform="matrix(1.24 0 0 1 123.4023 204.7598)" class="st9 st2 st10">C</text>
<text transform="matrix(1.24 0 0 1 125.9199 204.7598)" class="st9 st2 st10">O</text>
<text transform="matrix(1.24 0 0 1 128.5981 204.7598)" class="st9 st2 st10">A</text>
<text transform="matrix(1.24 0 0 1 131.0781 204.7598)" class="st9 st2 st10">S</text>
<text transform="matrix(1.24 0 0 1 133.3472 204.7598)" class="st9 st2 st10">T</text>
<g id="Burkina_Faso_1_">
	<path id="Burkina_Faso" class="st0" d="M165,150.5c-9.3-0.8-17.9,4.1-25,10.4c-6.1-3.1-3.6,5.6-8.1,7.3c-4.5,0.3-3.8,5.7-3.6,7.7
		l-1.4,5.6c4.1,8.8,10.7-0.1,15.5,5.8c3-3.5-0.7-6,2-9.6h17.4c2.5,0.7,5.5-1,6.8,1.3l0.1,0.1c2.6-5,7.7-2.9,10.3-7.7l-0.4-0.8
		c-1-2.3-3.1-3.8-4.8-3.6C171.1,161.8,163.7,156.8,165,150.5z M168.4,179.4c-0.1,0.1-0.1,0.2-0.2,0.3
		C168.3,179.6,168.3,179.5,168.4,179.4L168.4,179.4z M168.2,179.6c0,0.1-0.1,0.2-0.1,0.3C168.1,179.8,168.2,179.7,168.2,179.6
		L168.2,179.6z M168.1,180c-0.2,0.3-0.3,0.6-0.4,1C167.8,180.7,167.9,180.3,168.1,180L168.1,180z"/>
	<text transform="matrix(1 0 0 1 138.62 169.69)" class="st9 st2 st10">BURKIN</text>
	<text transform="matrix(1 0 0 1 149.91 169.69)" class="st9 st2 st10">A</text>
	<text transform="matrix(1 0 0 1 151.85 169.69)" class="st9 st2 st10"> </text>
	<text transform="matrix(1 0 0 1 152.61 169.69)" class="st9 st2 st10">F</text>
	<text transform="matrix(1 0 0 1 154.2 169.69)" class="st9 st2 st10">A</text>
	<text transform="matrix(1 0 0 1 156.2 169.69)" class="st9 st2 st10">SO</text>
	<path id="Air_Burkina" class="st4" d="M153.3,164.7c0.7,0,1.3-0.6,1.3-1.3s-0.6-1.3-1.3-1.3s-1.3,0.6-1.3,1.3
		S152.6,164.7,153.3,164.7z"/>
</g>
<path id="Liberia" class="st0" d="M84.1,202.1c3.9-0.7,6.7-12.5,12.7-9.8c2.8,1.5,0.5,3.3,0.7,5c-0.7,4.3,5.1,3.5,7.1,2.2l0.5,7.2
	c5.3,3.1,5.3,10.7,4.1,14.7c-0.8,0-1.6-0.1-2.3-0.5C98.8,215.8,91.8,208.2,84.1,202.1L84.1,202.1z"/>
<text transform="matrix(1.24 0 0 1 80.6299 215.8501)" class="st1 st2 st10">LIBERI</text>
<text transform="matrix(1.24 0 0 1 91.9258 215.8501)" class="st1 st2 st10">A</text>
<path id="Sierra_Leone" class="st0" d="M92.2,192.7c-2.4-4.4-0.5-7.7-5-11.7l-6.7,0.3l-5.5,4.4l-0.5,0.4c-0.8,5,1.5,9.8,5.1,13.1
	c1.5,1,3,2.1,4.4,3.2l0.1-0.1c2.8-0.5,5-6.6,8.1-9.1V192.7L92.2,192.7z M87.2,204.8c0.1,0.1,0.1,0.1,0.2,0.1
	C87.3,204.8,87.3,204.8,87.2,204.8z"/>
<text transform="matrix(1 0 0 1 54.88 197.29)" class="st1 st2 st10">SIERR</text>
<text transform="matrix(1 0 0 1 63.24 197.29)" class="st1 st2 st10">A</text>
<text transform="matrix(1 0 0 1 65.18 197.29)" class="st1 st2 st10"> L</text>
<text transform="matrix(1 0 0 1 67.69 197.29)" class="st1 st2 st10">E</text>
<text transform="matrix(1 0 0 1 69.47 197.29)" class="st1 st2 st10">ONE</text>
<path id="Guinea" class="st0" d="M64.8,170.5c1.9-3.1,4.6-1.8,6.9-4.1c0.2-2,0.8-4.3,2.8-5c5.1,1.4,8.6,2.8,12.7,1.7l1,3.1
	c4.9-0.7,10.2,1.7,14.8-1.7c0.5,1.3,2,1,2.7,1.7s0.7,2.6,1.2,3.9c0.7,2.1-0.3,4.4,0.5,6.5c0.5,1.1,1,2.2,1.6,3.3v0.1
	c-0.9,0.5-1.5,1.4-1.7,3.7c1.3,3.9,3.8,8.5-1,11c0.7,1.5,0,3.3-1.6,4.8c-2,1.4-7.8,2.2-7.1-2.2c-0.2-1.6,2.1-3.4-0.7-5
	c-1.5-0.7-3.4-0.5-4.6,0.7v-0.4c-2.4-4.4-0.5-7.7-5-11.7l-6.7,0.3l-5.5,4.4l-0.5,0.4l0,0c0-0.2,0.1-0.4,0.1-0.6
	c-0.9-1.4-0.9-3.1-1.9-4.4c-0.7-1.1-1.7-2.9-2.4-3.9c-1-1.4-1.9-2.9-3-4.3C66.6,172,65.8,171.2,64.8,170.5z"/>
<text transform="matrix(1 0 0 1 81.52 175.96)" class="st9 st2 st3">GUINE</text>
<text transform="matrix(1 0 0 1 93.94 175.96)" class="st9 st2 st3">A</text>
<path id="Guinea-Bissau" class="st0" d="M55.3,161.5c5.2,0.9,12.8-3.1,18.1,0.5l0.1,0.2c-1.1,1.2-1.8,2.8-1.8,4.4
	c-2.3,2.3-5,1-6.9,4.1c-1.3-0.9-2.5-2-3.5-3.2c-3.9-1.7-5.7-3.6-6.4-5.7C54.9,161.8,55.3,161.5,55.3,161.5z"/>
<text transform="matrix(1 0 0 1 35.17 169.52)" class="st1 st2 st10">GUINEA-BIS</text>
<text transform="matrix(1 0 0 1 52.4 169.52)" class="st1 st2 st10">S</text>
<text transform="matrix(1 0 0 1 54.19 169.52)" class="st1 st2 st10">A</text>
<text transform="matrix(1 0 0 1 56.13 169.52)" class="st1 st2 st10">U</text>
<path id="Gambia" class="st0" d="M55.2,151.5c1.2-0.2,2.4-0.3,3.6-0.3c2-0.1,4-0.4,5.9-1.1c0,0,2.1-1.4,6.3,1.8s-1,2.9-1,2.9l-5.3-2
	c-4.5-0.6-5.6,5.2-9.8,2h-0.1C55,153.7,55.1,152.6,55.2,151.5L55.2,151.5z"/>
<text transform="matrix(1 0 0 1 41.86 154.39)" class="st1 st2 st10">GAMBI</text>
<text transform="matrix(1 0 0 1 51.45 154.39)" class="st1 st2 st10">A</text>
<path id="Senegal" class="st0" d="M60.6,131.5l9.5-0.4c7.9,2.9,8.5,9.9,15,15.3l-0.3,7.4c2.8,2.1,4.6,6.3,2.3,9.4
	c-4.1,1.1-7.6-0.3-12.7-1.7c-0.3,0.2-0.6,0.4-0.9,0.5l-0.4-0.3H73c-5.3-3.2-12.7,0.6-17.8-0.3l-0.5,0.2c-0.8-2.1-0.5-4.4,0-6.8h0.1
	c4.2,3.2,5.3-2.6,9.8-2l5.3,2c0,0,5.1,0.2,1-2.9s-6.3-1.8-6.3-1.8c-1.9,0.6-3.9,1-5.9,1.1c-1.2,0-2.3,0.1-3.5,0.3
	c0.3-2.5-0.2-5-1.4-7.2c-1.7-0.9,0.7-3.1,0.7-3.1c2.3-3,4.1-6.3,5.4-9.9C59.9,131.3,60.6,131.5,60.6,131.5z"/>
<text transform="matrix(1 0 0 1 57.93 144.18)" class="st9 st2 st3">SEN</text>
<text transform="matrix(1 0 0 1 65.87 144.18)" class="st9 st2 st3">E</text>
<text transform="matrix(1 0 0 1 68.23 144.18)" class="st9 st2 st3">GA</text>
<text transform="matrix(1 0 0 1 73.79 144.18)" class="st9 st2 st3">L</text>
<path id="Mali" class="st0" d="M85.1,146.4c3.5,0.2,1.5-4.1,4.4-5c1.4,2.8,4.3,4.3,7.3,1.7l30.8,1.4l2.1-4.8l-1.1-5l1.6-56.8h9.8
	l0.2-0.1l34.2,30.2c1.4,7.7,13,6.4,13.1,14c1.6-0.2,3.7-0.2,5.8-0.3l-0.1,0.7c-0.4,8.5-0.5,17.8-4.7,24.7
	c-5.5,3.9-13.1-0.7-18.7,2.6l-4.8,0.7c-9.3-0.8-17.9,4.1-25,10.4c-6.1-3.1-3.6,5.6-8.1,7.3c-4.5,0.3-3.8,5.7-3.6,7.7l-1.4,5.6
	c-4.6,3.8-5.4-5.7-9.6-1.9c-3.2,1.2-6.4-0.4-8.3,0.4v-0.1c-0.6-1.2-1.2-2.3-1.6-3.3c-0.8-2.1,0.2-4.4-0.5-6.5
	c-0.5-1.3-0.5-3.1-1.2-3.9s-2.3-0.5-2.7-1.7c-4.6,3.4-9.9,1-14.8,1.7l-1-3.1c2.3-3.1,0.5-7.3-2.3-9.4
	C84.9,153.6,85.1,146.4,85.1,146.4z M128,183.5C128,183.6,128.1,183.6,128,183.5z"/>
<text transform="matrix(1 0 0 1 144.72 133.24)" class="st9 st2 st15">MALI</text>
<g id="Mauritania_1_">
	<path id="Mauritania" class="st11" d="M60.1,131.2c0.9-2.5,1.6-5,2.2-7.6c0.6-2.3,1.1-4.3,1.6-6.2c1.4-3.9-3.2-7.9,1.3-12
		c0.4-1.9-0.6-4.5-2-6.5c-1-0.6-1.5-1.9-1.2-3.1h0.7L83.4,99c4.1-0.8,4.2-6,4.5-9.1c1.4-3.1,5-4.4,7.7-4.1l3.6-18l19.4,1.5l1.6-9.3
		l0.1,0.2l19.9,17.6l-0.2,0.1h-9.8l-1.6,56.8l1.1,5l-2.1,4.8l-30.8-1.4c-3,2.6-5.9,1.1-7.3-1.7c-2.9,0.9-0.9,5.2-4.4,5
		c-6.6-5.4-7.1-12.4-15-15.3l-9.5,0.4L60.1,131.2L60.1,131.2z"/>
	<path id="Mauritania_Airlines" class="st4" d="M100.1,107.6c0.7,0,1.3-0.6,1.3-1.3s-0.6-1.3-1.3-1.3s-1.3,0.6-1.3,1.3
		S99.4,107.6,100.1,107.6z"/>
	<text transform="matrix(1 0 0 1 80.34 115.05)" class="st9 st2 st8">M</text>
	<text transform="matrix(1 0 0 1 84.71 115.05)" class="st9 st2 st8">A</text>
	<text transform="matrix(1 0 0 1 87.95 115.05)" class="st9 st2 st8">URI</text>
	<text transform="matrix(1 0 0 1 96.31 115.05)" class="st9 st2 st8">T</text>
	<text transform="matrix(1 0 0 1 99.05 115.05)" class="st9 st2 st8">ANI</text>
	<text transform="matrix(1 0 0 1 107.58 115.05)" class="st9 st2 st8">A</text>
</g>
<g id="North_Sudan_1_">
	<path id="North_Sudan" class="st0" d="M393.2,185.1c0.3-2.8,1.3-4,4.6-6.1c-0.8-3.4,1.5-7.1,3.3-10.2c5-2.2,4.9-8,5.4-12.6l0,0
		c0.1-0.6,0.2-1.2,0.4-1.8c-1.9-4.5,2.3-8.9,1.4-14.2l0.7-2.4l9.5-7.3l0.1-0.5l0.4-0.2c-1.6-2.6-4-4.5-6.8-5.7
		c-0.1-0.2-0.2-0.3-0.3-0.5c-2.2-5.2-3.9-13.2-6.2-19.1l-1.4,0.4h-75.4l-0.5-0.1l0.5,13.7c-2.8,1.5-5.1-1.5-6.4,2.3l0.7,27.3
		l-6.5,1.9c2,4-5.2,6.2-3.3,10.5c-1.9,1.5-1.2,4.5-1.7,7c-1.1,0.7,0.8,2.6,0.8,2.6c1.7,1.1,1.8,4.1,1.4,5.6
		c-0.2,2.8,5.4,3.6,3.3,6.7c1.5,3.5,6.1,8.2,4.3,11.1c1,3.1-2.4,2.6,1.7,3.7l3.2-2.5v-3.3l1.4-1.3l-0.1-1.9l1.9-1.8V185l5.7-1.3l2,3
		l0.9,1.9l0.6,0.9l2.6,1l1.8-1.1l6.5,0.1l1.3,1.9l4.1-0.3l2.9-2.4h2.8l0.4-2.4l2.5-1.5l2.9,0.9l3.1,2.5l3.3,0.1l4.3-3.9l0.3-1.4
		l3.4-3.3l0.9-0.4l-0.9-1.1l-0.1-3.7l-1.9-1.6l3.8-0.1l0.5-0.6v-0.8l3.6-0.5l-0.5,5.2l0.6,4.3v1l1.9,0.5l2.1,3.3l2.3,0.6
		L393.2,185.1z M405.2,103.8c0.1,0.1,0.1,0.2,0.2,0.4C405.3,104,405.3,103.9,405.2,103.8z M405.4,104.2c0,0.1,0,0.2,0.1,0.3
		C405.4,104.3,405.4,104.3,405.4,104.2z"/>
	<path id="Sudan_Airways" class="st4" d="M358.4,130.1c0.7,0,1.3-0.6,1.3-1.3s-0.6-1.3-1.3-1.3s-1.3,0.6-1.3,1.3
		S357.7,130.1,358.4,130.1z"/>
	<path id="Jubba_Airways" class="st4" d="M339.6,169.5c0.7,0,1.3-0.6,1.3-1.3s-0.6-1.3-1.3-1.3s-1.3,0.6-1.3,1.3
		S338.9,169.5,339.6,169.5z"/>
	<text transform="matrix(1 0 0 1 344.42 149)" class="st9 st2 st8">NO</text>
	<text transform="matrix(1 0 0 1 352.01 149)" class="st9 st2 st8">R</text>
	<text transform="matrix(1 0 0 1 355.26 149)" class="st9 st2 st8">TH SU</text>
	<text transform="matrix(1 0 0 1 370.12 149)" class="st9 st2 st8">D</text>
	<text transform="matrix(1 0 0 1 373.5801 149)" class="st9 st2 st8">AN</text>
</g>
<g id="South_Sudan_1_">
	<path id="South_Sudan" class="st0" d="M393.4,185.5c-0.3,2.7,0,6.6-0.7,9.6c0.8,1.6-3.2,4.3-4.3,3.1c-7.2,6.1,7.4,6.6,9.4,13
		c0.4,2.2,1.5,4.3,3.2,5.8l0,0v0.1h-0.4l-6.4,8.1c-1.1,0.6-2.2,1.3-3,2.3l0,0c-0.6,0.7-1.1,1.4-1.6,2.2c-6.4,1.7-12.4,1.2-18.6,1.7
		c0,0.1,0,0.1,0.1,0.1l0,0l0,0c-0.1,0-0.1,0-0.1-0.1v0l-7.7-6c-2.9,3.7-5.4-0.8-8.7,1.7l-3.3-2l-3.5-2.6l0,0
		c0.4-0.1,0.5-0.2,0.5-0.5l-18.1-20.8c-2-0.5-5.4-2.8-6.9-4.1v0.3l3.1-2.5v-3.3l1.4-1.3l-0.1-1.9l1.9-1.8v-1.4l5.7-1.3l2,3l0.9,1.9
		l0.6,0.9l2.6,1l1.8-1.1l6.5,0.1l1.3,1.9l4.1-0.3l2.9-2.4h2.8l0.4-2.4l2.5-1.5l2.9,0.9l3.1,2.5l3.3,0.1l4.3-3.9l0.3-1.4l3.4-3.3
		l0.9-0.4l-0.9-1.1l-0.1-3.6l-1.9-1.6l3.8-0.1l0.5-0.6v-0.8l3.6-0.5l-0.5,5.2l0.6,4.3v1l1.9,0.5l2.1,3.3l2.4,0.4L393.4,185.5z
		 M371.3,231.6C371.3,231.7,371.4,231.7,371.3,231.6C371.4,231.7,371.3,231.7,371.3,231.6L371.3,231.6z"/>
	<path id="Budr_Airlines" class="st4" d="M365,200.9c0.7,0,1.3-0.6,1.3-1.3s-0.6-1.3-1.3-1.3s-1.3,0.6-1.3,1.3
		S364.3,200.9,365,200.9z"/>
	<text transform="matrix(1 0 0 1 354.23 209.24)" class="st9 st2 st10">SOUTH SU</text>
	<text transform="matrix(1 0 0 1 369.48 209.24)" class="st9 st2 st10">D</text>
	<text transform="matrix(1 0 0 1 371.55 209.24)" class="st9 st2 st10">AN</text>
</g>
<path id="Lake_Malawi" class="st19" d="M394.6,332.2c-0.6,1.3-1.2,1.2-1.6,2.9c-0.3,0.8-0.4,3.3-0.6,4.2c0.2,0.6,0.4,1.1,0.5,1.7
	c1.2,3.4,2.9,7.2,2.3,10.9c1.4-0.3,3.2,1.3,3.8-0.9c-2.6-4.5-2.1-7.4-0.8-12.2c0.1-0.5,0.3-2.8,0.5-3.3c-0.3-0.4-0.5-0.8-0.7-1.2
	c-0.5-0.8-0.9-3.1-1.5-3.8c-1.2-1.2-1.5-5.4-1.5-5.4c0.5-1.4,0.8-3.3-2-3.3c-1.2,1.4-0.6,2.5,0.2,3.4c0,0,1.6,5.1,1.4,6.5
	L394.6,332.2L394.6,332.2z"/>
<path id="Lake_Tanganyika" class="st19" d="M364.9,296.7c2.9,2.3,3.8,5.5,4.6,8.7c0,0.2-0.1-0.4,0-0.2s1.3,1,1.5,1.2s2.8,2,2.5,2
	s-3.2,0.1-3.2,0.3c0.5,1.9,1.3,3.8,2.5,5.4c-1,1.8-3.2-0.8-3.6-2.6c0,0-1.2-5.4-2.2-5l-3.9-3.9c-1-4.5-3.3-10.1-2.8-14.7
	c0.1-0.5-0.2-2.3-0.1-2.7c0.3-0.7,1,0.4,1.4-0.3c0.4,0.7,0.5,1,0.9,1.6C364.2,290.2,365.6,293.4,364.9,296.7L364.9,296.7z"/>
<path id="Lake_Victoria" class="st19" d="M395.9,257c2.1,1.9-3.2,2.4-1.9,4.7c1.6,4.8-10.2,6.6-3.1,9.1c-0.4,2.1-2.7,2.3-4.4,1
	c-2.7,0.1-9.3,4.3-9-2.4c2.5-4.6-1.3-8.5,3.1-13.6c1.7-1.3,6.3,1.4,8.4-2.4C391.2,253.4,393.1,259.3,395.9,257L395.9,257z"/>
<path id="Lake_Chad" class="st19" d="M262.9,165.9c0.9,1.9-6.8,6.2-7.7,0c0-0.4-0.1-0.8-0.2-1.2C255,164.7,255.1,151.1,262.9,165.9z
	"/>
<path id="Lake_Rudolf" class="st19" d="M408.3,234.5c-1.2-0.9-2.3-1.7-2.6-3.3c-0.3-2.1-1.3-6.3,1.6-7.7c2.1,3.8,1.2,8.4,2,11.4
	L408.3,234.5z"/>
</svg>
